<?xml version="1.0" encoding="UTF-8"?><svg id="uuid-bd5fb5a2-1bf7-4621-9959-8dc986e213b0" xmlns="http://www.w3.org/2000/svg" xmlns:xlink="http://www.w3.org/1999/xlink" viewBox="0 0 1398.8 1432.8"><defs><style>.uuid-7ecf2b4a-77cb-4600-8961-c21bf864c42f{fill:none;}.uuid-6bd1997e-7ec8-470f-b2ca-040f89503112{clip-path:url(#uuid-cdf4c0ef-d00b-4d7b-a5db-f82a8d59c338);}.uuid-f8b2b877-8d34-4d53-ba2f-6bcab93dcd58{fill:#f8f8fb;}.uuid-c58d13c0-114a-4d37-b80d-cd9376b777ac{fill:#020202;}.uuid-2691df18-61d8-47a1-bf3a-ef18051c42d6{fill:#f0f0f0;}.uuid-d26b403a-a5d5-42d1-911b-04cd65117f73{fill:#f5c716;}.uuid-98c85cce-433b-48bd-bb3e-fbc16c1f388a{fill:#ec1f27;}.uuid-6e00c53a-f3fc-403e-b9f4-b72fbcbae75e{fill:#ec2028;}.uuid-780a21ba-8f89-47bd-acb6-5744867be7e3{fill:#fcfcfc;}.uuid-2744c49e-1e18-4af8-aab8-9486e45ba64b{fill:#fff;}.uuid-802ccbc2-7b71-46da-af31-08cd379465e8{fill:#fefefe;}.uuid-3e8610e1-9bea-498a-93f3-1a03ed595117{fill:#fcca0c;}.uuid-776a6c50-3809-430c-abb9-dd9e94f22655{fill:#3e3c4f;}.uuid-82deb593-77d5-4264-9091-508de3aa16d1{fill:#2b2728;}.uuid-a25bde49-5034-4897-86cc-ab7185c3b01b{fill:#2f3292;}.uuid-b59eab69-d578-4cdc-b7e6-222e304d60d0{fill:#383991;}.uuid-6aa2ad90-77ce-476e-8db5-a276358e5f61{fill:#272324;}.uuid-ccb25e9d-e14e-4fb7-a526-5f114a53ab3a{fill:#2e3191;}</style><clipPath id="uuid-cdf4c0ef-d00b-4d7b-a5db-f82a8d59c338"><rect class="uuid-7ecf2b4a-77cb-4600-8961-c21bf864c42f" x="-308.4" y="-243.2" width="2000" height="2000"/></clipPath></defs><g class="uuid-6bd1997e-7ec8-470f-b2ca-040f89503112"><path class="uuid-802ccbc2-7b71-46da-af31-08cd379465e8" d="M685.6,383.3s0,0,0,0c0,0,0,0,0,0h0s0,0,0,0h0Z"/><path class="uuid-a25bde49-5034-4897-86cc-ab7185c3b01b" d="M1376.5,722c-16.6-10.9-33.1-21.8-49.8-32.7-2.5-1.7-3.9-3.4-4.3-6.7-1.1-9.5-2.7-19-4.4-28.5-10.3-59.5-30.8-115.4-60.9-167.7-30.5-53-69.5-99.2-112.5-142.3-34.3-34.4-70.9-66.3-106.6-99.2-27.6-25.4-54.8-51.3-78.3-80.6-4.2-5.2-8.2-10.5-12.3-15.8,.3,7.6,1.6,14.8,2.9,22,8.8,50.1,17.6,100.2,26.2,150.3,1.5,8.5,2.8,5.9-5.3,9.9-2.9,1.5-6,2.7-9.1,3.9-30.9,12.2-63.4,15.5-96.3,16.6-28.6,1-57.4,0-85.8,4.8-24.6,4.1-46.2,13.6-60.7,35.2-1.5,2.2-2.8,2.2-5,1-6.4-3.6-13-7-19.5-10.5-1.4,.5-2.1,1.8-2.9,2.9q-3.5,4.4-6.4-.5c0-.2-.2-.4-.3-.6,0,0,0-.2,.1-.2-.6,.3-1.3,.6-1.9,1-2.1,1-4.1,2-6.2,3-2.7,1.4-5.5,2.8-8.1,4.3-3.2,1.9-4.9,1.4-7.2-1.6-15.7-20.9-36.6-33.6-61.8-40-22.5-5.7-45.4-6.7-68.4-7.2-22-.5-44.1-.5-66.1-3.2-19.7-2.5-38.6-7.3-56.1-17.1-2.7-1.5-3.7-2.8-3-6.2,4.3-21.2,8.3-42.5,12.3-63.8,5.5-29.5,10.9-59.1,16.4-88.7,1.7-9.4,3.5-18.9,5.2-28.3-1.4,.8-2.2,1.7-2.8,2.8-11.2,17.2-24.2,33.1-38,48.2-29.3,32-61.7,60.8-93.8,89.9-43.8,39.7-87.1,79.9-125,125.4-33.8,40.6-62.6,84.5-84.1,132.8-21.2,47.5-34.4,97.2-40.8,148.8-.3,2.7-1.4,4.2-3.5,5.6-16.5,10.7-32.9,21.6-49.3,32.4-1.2,.8-3,1-3.2,4.4,11.3,0,22.5-.3,33.7,0,34.5,1.2,69,2.6,103.4,4,46,1.8,91.9,3.6,137.9,5.5,4.2,.2,4.1-1.2,3.2-4.6-5-18.7-9.9-37.4-14.8-56.1-.6-2.3-.8-4.6,0-6.9,2.6-6.9,4.8-14,7.7-20.8,27.1-66.2,67.2-123.7,118.2-173.7,18.7-18.4,38.8-35,62.7-46.6,8.7-4.2,17.8-7.4,27.6-7.1,58.9,2,117.8,4.2,176.7,6.2,2.6,0,4.2,.9,5.8,3.1,14.4,19.7,42.2,19.7,56.4,0,1.7-2.3,3.4-3.2,6.2-3.2,14.7-.4,29.3-1.1,43.9-1.6,41.9-1.4,83.8-2.7,125.6-4.4,10.7-.4,20.6,1.6,30.2,6,14.9,6.7,28.2,15.9,40.8,26.2,38.9,31.8,70.7,69.9,98.3,111.7,21,31.9,38.5,65.7,50.9,101.9,1.3,3.8,1.4,7.2,.4,11-4.8,18.1-9.4,36.2-14.3,54.3-1.1,3.8-.6,4.8,3.5,4.6,30.8-1.3,61.7-2.4,92.6-3.6,59.8-2.3,119.7-4.7,179.5-7.1,.9,0,2.2,.8,2.8-1-.8-.5-1.5-1.1-2.3-1.6M209.1,456.5h0c0,0,0,.1,0,.2,0,.1,0,.2,0,.4,0,0,0,0,0,0h0s0,0,0,0h0s0,0,0,0c0,0,0,0,0,0h0s0,0,0,0h0c-.2-.2-.3-.3-.5-.4,.2,0,.4-.1,.6-.2m-71.1,152.3c-.3,.1-.5,.3-.8,.4-.2,.2-.5,.3-.8,.5-.2,.1-.3,.2-.5,.3-.3,.2-.7,.4-1,.6-.4,.2-.7,.3-1.1,.4-.3,0-.7,.2-1,.3-.3,.1-.6,.2-.9,.3-.7,.2-1.2,.5-1.8,.8-.2,.1-.4,.2-.5,.3-.2,.1-.3,.2-.4,.3,0,0,0,0-.1,.1-.1,.1-.3,.2-.4,.3-.1,.1-.3,.3-.4,.4-.1,.1-.2,.3-.3,.4-.2,.3-.3,.6-.4,1,0,.1,0,.3,0,.4h0c0,0,0,.1,0,.2,0,.7,0,1.4,.2,2.2,.1,.3,.2,.6,.4,1,0,0,0,0,0,0,.1,.3,.3,.7,.5,1.1,.1,.2,.2,.4,.2,.6,0,0,0,0,0,0,.1,.4,.1,.9,0,1.3,0,.1,0,.2-.1,.3,0,0,0,.2-.1,.2-.2,.2-.3,.4-.6,.6,0,0-.2,.1-.3,.2-.1,0-.3,.2-.5,.2-.1,0-.2,0-.3,.2-.2,.2-.5,.3-.7,.5,0,0-.1,0-.2,.1-.3,.2-.7,.4-1,.6-1.3,.7-2.4,1.3-3.5,1.8-.3,.1-.5,.2-.8,.3-.3,.1-.7,.2-1,.3-.2,0-.4,0-.6,.1-.4,0-.7,.1-1,.2-.2,0-.3,0-.5,0s-.3,0-.5,0c0,0,0,0-.1,0-.2,0-.3,0-.4,0-.3,0-.6-.2-.9-.3,0,0-.2-.1-.2-.2-.2-.2-.5-.3-.7-.6,0,0-.2-.2-.3-.3,0-.1-.2-.2-.2-.3,0,0-.2-.2-.2-.3-.2-.3-.4-.7-.5-1.1-.1-.2-.2-.5-.3-.8-.4-1.1-.7-2.5-1-4.2,0-.3,0-.6-.1-.9,0-.4-.1-.8-.2-1.3-.2-1.7,.2-2.7,1.9-3.2,.7-.2,1.3-.4,2-.6,.7-.2,1.3-.4,2-.7,1-.4,1.9-.7,2.6-1,.1,0,.2,0,.3-.1,.5-.2,.9-.4,1.2-.6,.3-.1,.5-.3,.7-.5,0,0,.2-.2,.3-.2,1-1.1,.7-2.7,0-6.4-.1-.6-.2-1.2-.2-1.7s0-.3,0-.4c0,0,0-.2,0-.3,0,0,0-.2,0-.2,0,0,0,0,0-.2,0,0,0-.2,0-.3,0,0,0-.2,.1-.3,0-.2,.2-.4,.3-.5,0-.1,.2-.2,.3-.3,0,0,0,0,0,0,0,0,.2-.2,.3-.3,0,0,.2-.2,.3-.2,0,0,.2-.1,.3-.2,.4-.2,.9-.4,1.5-.5,.1,0,.3,0,.4-.1,.2,0,.4-.1,.6-.2,.2,0,.4-.2,.7-.3,.2,0,.3-.1,.5-.2,.2,0,.3,0,.5-.1,.3,0,.7-.2,1-.4,0,0,.2,0,.3-.1,0,0,0,0,.1,0,.2,0,.3-.2,.5-.3,.3-.2,.5-.3,.8-.5,.2-.2,.5-.3,.8-.5,.2-.1,.4-.2,.6-.3,.2-.1,.4-.2,.5-.3,.2-.1,.5-.2,.7-.3,.7-.2,1.2-.1,1.7,.4,2.3,2.7,2.8,6.8,3.7,9.3,.3,2.4-.4,3.1-1.5,3.7m126.8-83c-4.2,3.6-8.9,6.5-14.1,8.4-2.2,.8-2.8,1.8-1.4,4,3.6,5.5,2.9,11.2-.5,16.4-5.5,8.4-11.3,16.7-17,25-.7,1-1.6,2.4-2.6,2.6-6,1.2-6.1,5.9-7.9,10.6-4.3,11.3-11.6,21.2-20.1,29.9-3,3.1-7.3,4.1-11.8,2.9-2.7-.7-5.5-1.2-8.4-1.4-4.6-.2-6,1.6-4.9,6.1,1.4,6,5,11.2,7.6,16.7,1.5,3.2,2.8,6.3,2.7,9.9-.2,5.9-5.1,10.8-10.8,9.8-12.7-2.2-22.4-9.4-30.5-19-.5-.6-.8-1.4,0-2.4,4.3,2.9,8.5,6.2,13.2,8.5,2.8,1.4,5.8,2.5,8.8,3.2,2.7,.7,5,0,6.9-1.9,2-2.1,2-4.4,.9-7-2.6-6.2-6.6-11.7-8.1-18.5-.9-3.9-1.1-7.8-.7-11.7,.5-4.9,4.2-7.2,9-6.1,2.6,.6,5.3,.8,7.8,1.7,5.3,1.9,8.7-.2,11.6-4.5,4.9-7.3,9.9-14.5,15.1-22.1-6.5-.6-9.8,2.6-12.3,7-1.1,1.9-2,2.5-3.2,.4-3.6-5.9-8.1-11.3-4.5-19.3,3.8-8.4,9-14.8,18.2-16.8,4.5-1,8.4,0,10.9,4.5,.9,1.7,2.1,3.1,3.6,5.4,5.6-8.4,11.3-15.8,15.9-24.1,1.4-2.5,1.5-5,.2-7.7-1.8-3.5-3.5-7-5.1-10.6-.7-1.6-1.4-3.2-1.8-4.8-1.1-4.7-1.6-9.4,2-13.4,3.4-3.7,7.5-2.3,11.4-1.2,5.7,1.5,10.9,4.1,15.9,7,3.7,2.1,4,6.5,5.8,9.9,.6,1.1-1,1.8-1.8,2.5m58.6-49.7c-1.1,0-2-.2-2.6-.5-.1,0-.2-.1-.3-.2-.1,0-.2-.1-.3-.2,0,0-.2-.2-.2-.2-.3-.3-.5-.8-.6-1.2,0,0,0-.2,0-.3-.3-1.7,.3-3.8,0-5.2-.1-.5-.3-.9-.7-1.3,0,0,0-.2,0-.3,0,0,0-.1,0-.2,0,0,0-.2,0-.3,0,0,0-.1,0-.2,0,0,0-.2,.1-.3,0-.2,.1-.3,.2-.5,0-.2,.2-.3,.3-.5,0,0,0,0,0,0,.1-.2,.2-.3,.3-.5,.1-.2,.3-.4,.5-.5,.2-.2,.3-.4,.5-.5,.2-.2,.4-.4,.7-.6,.2-.2,.4-.3,.6-.5,.1,0,.2-.2,.4-.3,.2-.1,.4-.3,.6-.4,.2-.1,.4-.2,.6-.4,.3-.2,.6-.3,.9-.5,.2,0,.4-.2,.6-.3,.2,0,.5-.2,.7-.3,.2,0,.5-.2,.7-.2,.2,0,.3-.1,.4-.1,.3,0,.6-.2,.9-.2,.3,0,.5,0,.8,0,0,0,.1,0,.2,0,.2,0,.4,0,.7,0,.1,0,.2,0,.4,0h0c.2,0,.4,0,.7,.1,.5,.1,.9,.3,1.2,.6,.1,0,.2,.1,.3,.2,.1,0,.2,.2,.3,.3,.2,.2,.3,.3,.4,.6,0,.1,.1,.2,.2,.3,0,.1,.1,.2,.1,.3,0,.1,0,.3,.1,.4,0,.2,0,.3,0,.5,0,0,0,0,0,0,0,.1,0,.3,0,.4,0,0,0,0,0,.1,0,.2,0,.5,0,.8,0,2-.3,4.2,.4,6,1,2.5-5,6.1-10.2,5.9m24.4-70.1c0,.2,0,.3,0,.5,0,.2,0,.3,0,.5,0,.2,0,.3-.1,.5,0,.1,0,.3-.1,.4,0,.1,0,.3-.1,.4,0,.1-.1,.3-.2,.4,0,.2-.1,.3-.2,.5-.4,.9-.9,1.9-1.6,2.9-.1,.2-.3,.4-.4,.7-.4,.7-.9,1.4-1.4,2.2-4.8,7.2-9.7,14.3-14.3,21.6-.1,.2-.2,.4-.3,.5-.2,.4-.5,.7-.7,1.1-.2,.3-.5,.7-.7,1-.2,.2-.3,.5-.5,.8-.5,.6-.9,1.2-1.4,1.8-.2,.3-.4,.5-.7,.8,0,0,0,0,0,0-.2,.3-.5,.5-.7,.8,0,0-.2,.1-.2,.2-.3,.2-.5,.5-.8,.7-.1,.1-.2,.2-.4,.3-.1,0-.2,.2-.4,.3-.2,.2-.5,.4-.8,.5h0c-.3,.2-.6,.4-.9,.5-.9,.5-1.9,.9-2.9,1.1,0,0-.2,0-.3,0,0,0,0,0,0,0-.2,0-.3,0-.5,0,0,0-.1,0-.2,0-.5,0-1,0-1.6,0,0,0,0,0-.1,0-.2,0-.4,0-.6,0-.2,0-.4,0-.6,0-.2,0-.5,0-.8-.1-.2,0-.5-.1-.8-.2-.6-.2-1.2-.3-1.8-.6,0,0,0,0,0,0-.6-.2-1.3-.5-1.9-.8h0c-.2,.8-.2,1.5-.2,2.2s0,.5,0,.8c0,.2,0,.5,0,.7,0,.2,0,.5,.1,.7,0,.2,0,.5,.1,.7,0,.3,.1,.6,.2,.9,.1,.5,.3,.9,.4,1.4,.1,.3,.2,.6,.3,.9,0,.3,.2,.7,.3,1,0,.1,0,.2,.1,.3,.1,.3,.2,.7,.3,1.1,0,.3,.1,.5,.1,.8,.2,1.1,.2,2.2,.2,3.3,0,.1,0,.3,0,.4,0,.2,0,.5,0,.7,0,.1,0,.2,0,.3,0,.2,0,.4-.1,.7,0,.3-.2,.6-.2,.9,0,.2-.1,.4-.2,.6-.5,1.5-1.3,2.9-2.2,4.3-4.7,7-9.3,14-14.1,20.9-.7,1-1.4,2-2.1,2.9-.3,.4-.5,.7-.8,1.1-.3,.3-.5,.7-.8,1-.3,.4-.6,.7-.9,1.1-.3,.3-.5,.5-.8,.8-.6,.6-1.2,1.1-1.9,1.6-.3,.2-.5,.4-.8,.6-.3,.2-.5,.4-.8,.5,0,0,0,0-.1,0-.3,.2-.6,.4-.9,.5-1.3,.7-2.7,1.2-4.1,1.4-.2,0-.5,0-.7,.1-.4,0-.9,.1-1.3,.1-.4,0-.7,0-1.1,0s-.6,0-1,0c-.3,0-.7,0-1,0-.3,0-.7,0-1-.1-1.7-.3-3.5-.8-5.4-1.4-.8-.3-1.7-.7-2.5-1-.9-.3-1.7-.7-2.6-1.1-.8-.3-1.5-.7-2.3-1-.8-.4-1.6-.8-2.4-1.1-.8-.4-1.7-.8-2.5-1.3,0,0-.1,0-.2,0-.8-.4-1.6-.8-2.4-1.2-.6-.3-1.1-.6-1.7-.9-1.1-.6-2.2-1.2-3.3-1.8-.2-.1-.4-.2-.7-.4-.9-.5-1.8-1-2.7-1.5-1.1-.6-2.2-1.2-3.3-1.8-1.5-.8-2.9-1.7-4.4-2.5-1.3-.7-2.6-1.5-3.9-2.2-2.8-1.5-5.5-3-8.4-4.3-.4-.2-.7-.4-1.1-.6,0,0-.1,0-.2,0-.7-.4-1.4-.8-2-1.2,0,0,0,0,0,0-.3-.2-.6-.4-.9-.7-.4-.3-.8-.7-1.2-1-.2-.2-.4-.4-.7-.6-.2-.2-.5-.4-.7-.7-.4-.4-.8-.8-1.1-1.2-.2-.2-.4-.5-.6-.7-.6-.8-1.2-1.5-1.8-2.4-.5-.8-1-1.5-1.5-2.3-.2-.4-.5-.8-.7-1.2-.2-.3-.3-.6-.5-.9-.1-.2-.2-.5-.4-.7-.1-.2-.2-.4-.3-.6,0,0,0,0,0,0t0,0c-.3-.6-.6-1.2-.8-1.8,0,0,0-.2-.1-.2-.1-.3-.2-.6-.4-.8,0-.2-.2-.4-.2-.6-.2-.4-.4-.9-.5-1.3h0c.2,0,.4-.1,.6-.2,0,0,.1,0,.2,0,.2,0,.4,0,.6,0,0,0,0,0,.1,0,0,0,0,0,0,0,.2,0,.4,0,.6,.2,0,0,.2,0,.2,.1,.1,0,.2,.1,.3,.2,0,0,0,0,.1,0,0,0,.2,0,.2,.1,0,0,.1,.1,.2,.2,.2,.2,.5,.4,.8,.6,.1,0,.2,.2,.3,.2,.1,.1,.3,.2,.4,.3,3.9,2.2,7.8,4.5,11.6,6.7,3.9,2.2,7.8,4.5,11.6,6.7,3.9,2.2,7.8,4.4,11.7,6.6,3.9,2.2,7.9,4.3,11.8,6.4,.2,.1,.5,.3,.7,.4,1,.5,1.9,.9,2.8,1.3,.2,0,.4,.2,.7,.3,.8,.3,1.7,.6,2.4,.8,.3,0,.6,.2,.9,.2,.4,0,.8,.1,1.2,.2,.6,0,1.1,0,1.7,0,.2,0,.3,0,.5,0,.4,0,.8-.1,1.2-.2,.4,0,.8-.2,1.2-.4,.3-.1,.6-.2,.9-.4,.2,0,.3-.2,.5-.2,.2,0,.3-.2,.4-.3,.1,0,.3-.2,.4-.3,0,0,0,0,0,0,.1,0,.3-.2,.4-.3,0,0,0,0,0,0,.1,0,.2-.2,.3-.2,.3-.2,.6-.5,.8-.8,0,0,0,0,.1-.1,1.2-1.2,2.4-2.6,3.6-4.3,.2-.4,.5-.7,.8-1.1,3.8-5.6,7.8-11,11.5-16.7,.5-.7,.9-1.5,1.4-2.2,.2-.3,.4-.7,.6-1,.2-.4,.4-.7,.6-1.1,.6-1.2,1.1-2.4,1.6-3.7,.5-1.6,.9-3.2,1.1-4.9,.2-1.3,.2-2.7,0-4.1,0-.7-.2-1.4-.3-2.1-9.2,6.7-15.8,14.4-18,25.4-.1,0-.3-.2-.4-.2-.2-.1-.4-.3-.6-.4-.2-.1-.3-.2-.5-.4-.2-.2-.4-.4-.7-.6-1-1-1.8-2.1-2.7-3.2-.2-.2-.4-.5-.6-.7-.4-.5-.7-.9-1-1.4-2.2-3.3-3.2-6.8-3-10,0,0,0-.2,0-.2,0,0,0,0,0-.1,0-.2,0-.5,0-.7,0-.3,0-.6,.2-.9,0-.3,.1-.6,.2-.8,0,0,0-.2,0-.3,0-.2,.1-.5,.2-.7,.4-1.2,1-2.3,1.8-3.4,.4-.5,.8-1.1,1.3-1.6,.1-.2,.3-.3,.4-.5,0,0,0,0,0,0,0,0,.2-.2,.2-.3,1-1,2.2-2,3.6-2.9,3.9-2.6,7.9-5.2,11.6-8.1,.7-.6,1.5-1.2,2.2-1.8,1.5-1.2,2.9-2.5,4.2-3.8,.5-.5,.9-.9,1.4-1.4,.2-.2,.4-.5,.7-.7,.2-.2,.5-.5,.7-.7,.6-.6,1.1-1.3,1.7-2,.3-.4,.6-.8,.9-1.1,.3-.4,.6-.8,.9-1.2,2.3-3,4.4-6.1,6.5-9.3,.2,.2,.5,.4,.7,.6,.2,.2,.4,.4,.6,.6,.4,.4,.7,.7,1,1.1,.1,.2,.3,.3,.4,.5,.2,.2,.3,.4,.5,.6,0,.1,.2,.3,.3,.4,.5,.7,.9,1.4,1.2,2.1,.2,.5,.4,1,.5,1.6,0,.2,0,.4,.1,.6,0,.2,0,.3,0,.5,0,.5,0,1.1,0,1.7,0,.3,0,.5,0,.8,0,0,0,0,0,0,0,0,0,0,0,0,0,.2,0,.4-.1,.6,0,0,0,.1,0,.2,0,.2,0,.3-.1,.5,0,0,0,0,0,0,0,.2-.1,.4-.2,.6-.4,1.2-1,2.5-1.7,3.8-.3,.6-.7,1.2-1.1,1.8-.2,.3-.4,.6-.5,.9,0,0,0,.1-.1,.2-.1,.2-.2,.4-.3,.6-1.1,1.9-2,3.8-2.2,6.1,0,.2,0,.5,0,.7,.3,0,.6-.1,.9-.2,.6-.2,1-.4,1.5-.7,1.1-.8,1.7-1.9,2.4-2.9,3.3-4.7,6.5-9.5,9.7-14.2,3.2-4.8,6.5-9.5,9.8-14.2,.1-.2,.2-.3,.3-.4,.1-.2,.2-.4,.3-.6,0-.1,.1-.2,.2-.3,0-.2,0-.3,.1-.4,0-.3,0-.5,0-.7,0,0,0-.2-.2-.3,0,0-.1-.2-.2-.3h0c0-.1-.2-.2-.2-.3-.1,0-.2-.2-.3-.3-.2-.1-.4-.3-.6-.4-2.8-1.6-5.7-3.2-8.5-4.7-2.8-1.6-5.7-3.2-8.5-4.8-5.7-3.2-11.3-6.3-17-9.5-1.3-.7-2.6-1.5-3.9-2.2-.4-.2-.8-.4-1.3-.6-.4-.2-.9-.4-1.3-.5-.2,0-.4-.1-.7-.2-.2,0-.4,0-.6-.1-.1,0-.2,0-.4,0-.1,0-.3,0-.4,0,0,0-.1,0-.2,0-.6,0-1.3,0-2,0-1,.2-1.9,.3-2.8,.2-.1,0-.2,0-.4,0-.2,0-.5,0-.7,0-.1,0-.2,0-.3,0-.2,0-.3,0-.5-.1t0,0c0,0-.1,0-.2,0,0,0,0,0,0,0,0,0-.2,0-.2,0-.1,0-.2,0-.4-.1-.2,0-.4-.1-.5-.2-.1,0-.2-.1-.3-.2-.1,0-.2-.1-.3-.2-.1,0-.2-.1-.3-.2-.3-.2-.6-.4-.9-.7,0,0-.2-.2-.3-.3,0,0-.1,0-.2-.2-.2-.2-.3-.3-.5-.5-.2-.2-.3-.4-.4-.5-.3-.4-.5-.8-.8-1.2-.2-.4-.5-.9-.7-1.4-.6-1.4-1.5-2.7-2.1-4.2-.6-1.7-2.2-3.9-1.9-5.3,0,0,0-.2,0-.2,0,0,0-.1,0-.2,0,0,0,0,0-.1,0,0,0-.1,.1-.2,0,0,0,0,.1-.1,0,0,.2-.1,.2-.2,.2-.1,.3-.2,.5-.2,.3,0,.6,0,1,.1,.2,0,.3,.2,.5,.3,0,0,.2,0,.3,.2,.6,.4,1.3,.9,1.9,1.2,0,0,.2,0,.3,.1,.2,0,.4,.1,.6,.1,1.2,0,2.4,.1,3.7,0,.2,0,.3,0,.5,0,.2,0,.4,0,.5,0,.3,0,.5,0,.8,0,1.8-.2,3.5-.5,5.2-.9,.9-.2,1.8-.5,2.7-.8,2.1-.7,3.8-.9,5.2-.4,.2,0,.5,.2,.7,.3,.6,.4,1,.9,1.4,1.6,0,0,0,.2,.1,.3,.1,.3,.3,.7,.4,1.1,0,.2,0,.3,.1,.5,0,.2,.1,.5,.2,.7,.2,1.1,.6,2.1,1,3,0,.1,.2,.3,.2,.4,0,.1,.2,.3,.2,.4,0,0,.1,.2,.2,.3,.2,.2,.3,.4,.5,.7,.1,.1,.2,.2,.3,.4,0,0,0,0,.1,.1,.1,.1,.3,.3,.4,.4,.1,.1,.3,.3,.4,.4,.1,.1,.3,.2,.5,.4,.2,.1,.3,.2,.5,.4s.3,.2,.5,.4c.5,.3,1,.7,1.6,1,1.3,.8,2.7,1.6,4,2.5,1.3,.8,2.6,1.6,4,2.5,1.3,.8,2.6,1.7,3.9,2.5,2.6,1.7,5.2,3.3,7.9,5,3.9,2.5,7.8,5,11.8,7.5,.5,.3,1.1,.7,1.6,1.1s1,.8,1.5,1.2c.3,.3,.5,.5,.8,.8,.2,.2,.5,.5,.7,.7,.5,.5,.9,.9,1.3,1.4,.4,.4,.8,.8,1.1,1.3,.5,.6,.9,1.2,1.2,1.7,.2,.4,.4,.7,.6,1.1,0,.2,.1,.4,.2,.5,.1,.3,.2,.7,.3,1.1,0,.4,0,.7,0,1.1s0,.3,0,.5m10.1-19.1c-1-.5-1.9-1-2.8-1.5-3.3-1.8-6.4-3.4-9.4-5.1-1.8-.9-3.5-1.9-5.2-2.8-2.4-1.3-4.8-2.6-7.1-3.9-4.7-2.6-9.5-5.3-14.2-7.9-2.4-1.3-4.8-2.5-7.2-3.8-7.2-3.6-13.3-8.1-17.8-14.9-.8-1.3-1.7-2.5-2.6-3.7-1.5-2-3.1-4-4.7-6h0c12.5,4.8,24.1,10.9,35.4,17.6,.5,.3,.9,.6,1.4,.8,.5,.3,.9,.6,1.4,.8,.9,.5,1.7,1,2.6,1.5,0,0,.2,0,.2,.1,1.3,.7,2.5,1.4,3.8,2.2,1.3,.7,2.5,1.4,3.8,2.2,.6,.4,1.2,.7,1.9,1.1,1.2,.8,2.5,1.5,3.7,2.3,.5,.3,.9,.6,1.4,.9,0,0,.1,0,.2,.1,.3,.2,.6,.4,.9,.6,.7,.5,1.3,.9,2,1.4,.4,.3,.9,.6,1.3,1,.5,.3,.9,.7,1.4,1.1,1.1,.9,2.2,1.9,3.3,2.9,.3,.2,.5,.5,.8,.8,.4,.4,.8,.8,1.2,1.2,.7,.8,1.5,1.6,2.1,2.4,0,0,.1,.2,.2,.2,.3,.4,.7,.8,1,1.2,.9,1.2,1.7,2.4,2.5,3.7,.2,.2,.3,.5,.5,.7,1,1.6,1.9,3.3,2.8,5.2-1.5-.8-3-1.6-4.4-2.4m713.9-49.8h0c.2,0,.3,0,.5,0,3.9,.3,8.6-1.1,11.5,1.1,3,2.2,.9,7,1.2,10.6,0,1,.2,1.9,.5,2.6,0,.1,.1,.3,.2,.4,0,.1,0,.2,.2,.3,0,.1,.2,.2,.2,.4,0,.1,.2,.2,.3,.3,0,0,.2,.2,.2,.2,.2,.1,.4,.3,.6,.4,0,0,0,0,0,0,0,0,.2,0,.3,.1,.3,.1,.6,.2,1,.3,.2,0,.3,0,.5,0,.4,0,.9,.1,1.4,.1,2.4,0,4,.1,4.9,.6,0,0,.2,0,.2,.1,.1,0,.3,.2,.4,.3,0,0,.1,.1,.2,.2,0,0,.1,.1,.1,.2,0,0,.1,.1,.1,.2,0,.1,.2,.3,.2,.5,0,.2,0,.4,.1,.6,0,0,0,.2,0,.3,0,.1,0,.2,0,.3,.1,1,.1,2.2,.1,3.9v1.1c0,.3,0,.5,0,.8,0,.3,0,.5,0,.8,0,.2,0,.4,0,.6,0,.3,0,.7,0,1,.7,6.5,.7,6.5-6.2,6-1.7-.1-3.1-.2-4.2-.4-.2,0-.4,0-.5,0,0,0-.2,0-.3,0,0,0-.2,0-.3,0-.2,0-.4,0-.7-.1-.2,0-.3,0-.5-.2,0,0-.1,0-.2,0,0,0-.1,0-.2,0-.2,0-.3-.1-.5-.2-.1,0-.2-.1-.3-.2,0,0,0,0,0,0,0,0-.1,0-.2-.1-.2-.2-.4-.4-.6-.7,0-.1-.1-.2-.2-.4-.1-.3-.2-.6-.3-.9,0-.2,0-.4-.1-.6,0-.1,0-.3,0-.4-.1-.8-.2-1.8-.2-3,0-.5,0-1.1,0-1.7,0-.2,0-.4,0-.6,0-.2,0-.4,0-.6,0-.2,0-.4,0-.6,0-.5,0-1,0-1.5,0-.1,0-.3,0-.4,0-.2,0-.3,0-.5,0-.2,0-.5,0-.7,0,0,0-.2,0-.2,0,0,0,0,0-.1,0,0,0-.2,0-.2,0-.2-.1-.3-.2-.5,0-.2-.1-.3-.2-.4,0-.1-.2-.2-.2-.3s-.2-.2-.3-.2c-.5-.4-1.3-.6-2.4-.8-.3,0-.6,0-.9-.1-.7,0-1.4-.1-2.2-.2-.7,0-1.3-.2-1.8-.3-.5-.1-.9-.3-1.2-.6,0,0-.1-.1-.2-.2,0,0-.1-.1-.2-.2,0,0-.2-.2-.2-.3,0,0,0-.1-.1-.2,0,0-.1-.2-.2-.3,0,0,0-.2-.1-.3-.2-.4-.3-1-.5-1.6-.7-3.6-.5-7.2-.8-10.8-.1-1.8,.6-2.7,2.5-2.4m-7.1,143.7c0,.4,0,.8-.2,1.2,0,.1,0,.3,0,.4,0,.6,0,1.3,0,1.9,0,.3,0,.7,0,1,0,.3,0,.6,0,.9,0,.8,0,1.6,0,2.2,0,.2,0,.4,0,.6,0,.9-.2,1.5-.6,2,0,0-.2,.2-.2,.3,0,0-.2,.2-.3,.2-.2,.1-.5,.2-.7,.3-.2,0-.3,0-.5,0-.4,0-1,.1-1.6,.1-1,0-2.1,0-3.6,0-1.8,0-3.2,0-4.2-.2-.6,0-1.1-.2-1.5-.3-.1,0-.2-.1-.4-.2-.1,0-.2-.2-.3-.2-.1,0-.2-.2-.3-.3-.2-.2-.3-.4-.4-.7,0-.2-.2-.5-.3-.8,0-.2,0-.3-.1-.5-.2-1-.3-2.4-.5-4.2,0-.6-.1-1.2-.2-1.9,0-.7-.1-1.3-.2-1.8,0-.3,0-.5-.1-.8,0-.7-.2-1.4-.3-1.9,0-.2-.1-.4-.2-.7,0-.2-.1-.3-.2-.4,0-.1-.1-.2-.2-.3,0,0,0-.1-.2-.2,0,0,0-.1-.2-.2,0,0-.1-.1-.2-.2,0,0-.1,0-.2-.2,0,0-.2,0-.3-.2-.1,0-.3-.1-.4-.2-.3-.1-.7-.2-1.1-.3-.2,0-.5,0-.8-.1-.9,0-1.9-.2-3.2-.2-.5,0-1,0-1.4-.2-.2,0-.4-.1-.6-.2-.1,0-.2,0-.3-.1-.1,0-.2-.1-.4-.2-.1,0-.2-.2-.3-.3-.2-.2-.4-.6-.6-1,0,0,0-.2,0-.2,0-.2,0-.3,0-.5-.5-3.9-.9-7.8-1.2-11.7-.2-2.3,.7-3.6,3.4-2.9,.3,0,.6,.1,.9,.2,.3,0,.6,0,.9,.1,.6,0,1.3,0,1.9,.1,.5,0,1,0,1.4,.1,.5,0,.9,0,1.3,.1,.7,0,1.3,.1,1.8,.2,.2,0,.4,0,.6,.1,.2,0,.4,0,.5,.1,0,0,0,0,0,0,.2,0,.3,0,.4,.1,.2,0,.4,.1,.6,.2,.2,0,.4,.2,.6,.3,.2,0,.3,.2,.5,.4,.2,.2,.4,.4,.5,.7,.3,.6,.5,1.4,.6,2.5,0,.2,0,.3,0,.5,0,.3,0,.6,0,.9,0,.1,0,.3,0,.4,0,.9,0,2,0,3.3,0,.4,0,.8,0,1.2,0,.4,0,.8,0,1.2,0,.2,0,.4,0,.6,0,.2,0,.4,.1,.6,0,.4,.2,.7,.3,1,0,.2,.1,.3,.2,.5,.2,.3,.4,.5,.6,.8,0,0,.2,.2,.3,.2,.1,0,.2,.2,.3,.2,0,0,.2,.1,.3,.2,0,0,0,0,0,0,0,0,.2,0,.3,.1,0,0,0,0,0,0,0,0,.2,0,.2,0,0,0,.2,0,.2,0,0,0,0,0,.1,0,.1,0,.2,0,.4,0,.5,0,1.1,0,1.8,0,.2,0,.5,0,.7,0,.8,0,1.5,0,2.1,0,.2,0,.4,0,.5,0,.3,0,.5,.1,.8,.2,0,0,.2,0,.3,.1,0,0,0,0,.1,0,.2,0,.3,.1,.4,.2s.3,.2,.4,.3h.2c0,.2,.1,.3,.2,.3,.2,.2,.4,.4,.5,.7,0,.2,.2,.3,.2,.5,0,.1,0,.2,.1,.4,0,.1,0,.2,0,.4,0,0,0,.2,0,.3,0,.6,0,1.3,0,2.1m171.7,70.7c-.5,0-.9,0-1.3,0,0,0-.2,0-.3,0-.5,0-1,0-1.5-.1-.4,0-.8,0-1.2,0-.3,0-.6,0-.9,0-1.6,0-3.2-.2-4.7,0-.4,0-.9,0-1.3,0-.3,0-.5,0-.8,0-.5,0-1,0-1.5,0,0,0-.1,0-.2,0-.2,0-.5,0-.7,0-.2,0-.5,0-.7,0,0,0,0,0,0,0-.2,0-.5,0-.7,0-.2,0-.5,0-.7-.1-.2,0-.4,0-.6-.1-.5-.1-1.1-.3-1.6-.4-.3,0-.6-.2-.9-.3-.3-.1-.6-.2-.9-.4-.6-.3-1.2-.5-1.8-.8-1.8-.9-3.5-2.1-5.3-3.4-4.2-3-8.4-6-12.7-8.9-.7-.5-1.5-1-2.2-1.5-2.5-1.6-5-3.2-7.6-4.7-.5-.3-1-.6-1.5-.8-.1,0-.2-.1-.3-.2-.6-.3-1.2-.7-1.8-1s-1.2-.7-1.8-1c-.9-.5-1.8-.9-2.7-1.3-.9-.4-1.8-.9-2.8-1.3-2.8-1.2-5.6-2.3-8.6-3.3-1.1-.4-2.4-1.5-3.4-.2-.8,1.1,.1,2.4,.7,3.5,7.3,13.7,16.7,25.9,25.6,38.5,.7,1,1.4,2,2.2,3,.4,.5,.7,1,1.1,1.5,.3,.4,.6,.8,.9,1.1,2.4,3.1,4.9,6,7.4,9,.8,1,1.7,1.9,2.6,2.9,2.6,2.9,5.2,5.8,7.7,8.7,.7,.8,1.4,1.6,2,2.3,.5,.5,.9,1,1.3,1.5,.6,.7,1.3,1.5,1.9,2.2,1.6,1.9,3.2,3.8,4.7,5.8,.4,.6,.9,1.1,1.3,1.7,.4,.6,.9,1.1,1.2,1.7,1,1.3,1.9,2.7,2.7,4,.2,.4,.5,.8,.7,1.2,.4,.6,.7,1.2,1,1.8,.3,.6,.7,1.2,1,1.8,.3,.6,.6,1.2,.9,1.8,.3,.6,.6,1.2,.8,1.9,.3,.6,.5,1.3,.7,1.9,.1,.4,.3,.8,.4,1.2,0,.2,.2,.5,.2,.7,.2,.7,.4,1.4,.6,2.1,.1,.5,.2,1,.3,1.5,0,0,0,0,0,0,.1,.5,.2,1,.3,1.5,0,.3,.1,.7,.2,1.1,0,.4,.1,.8,.2,1.2,0,.5,0,1,.1,1.5,0,.3,0,.6,0,.8,0,.3,0,.6,0,.8,0,.3,0,.7,0,1s0,.5,0,.8c0,.7,0,1.3-.2,2-.1,.8-.2,1.6-.4,2.3,0,.2-.1,.5-.2,.8,0,.2-.1,.4-.2,.6,0,.2-.1,.4-.2,.6-.1,.3-.2,.6-.4,.9-.1,.3-.3,.6-.4,.9-.1,.3-.3,.6-.5,1-.5,.9-1,1.8-1.7,2.7-.1,.2-.2,.4-.4,.5-.3,.4-.5,.7-.8,1.1-.8,1-1.8,2.1-2.7,3-.2,.1-.3,.3-.4,.4s-.3,.2-.4,.4c-.1,.1-.3,.2-.4,.3-.1,.1-.3,.2-.4,.3-.2,0-.3,.2-.5,.2-.3,.1-.7,.2-1,.3-.5,.1-1,.2-1.5,.3-.2,0-.3,0-.5,0,0,0,0,0,0,0-.3,0-.7,0-1,0-.7,0-1.5,0-2.2,.1-.2,0-.4,0-.6,0-.2,0-.4,0-.7,0-.2,0-.3,0-.4,0-.2,0-.5,0-.7,.1,0,0-.2,0-.3,0-.2,0-.4,0-.6,.2-1.2,.4-2.3,.5-3.3,.4-.1,0-.2,0-.4,0-.3,0-.5,0-.8-.1,0,0-.2,0-.3,0-.2,0-.3,0-.4-.1-.1,0-.2,0-.3-.1-.3-.1-.7-.3-1-.5-.2-.1-.4-.2-.6-.4-1.3-.9-2.4-2.2-3.6-3.8-5.8-7.9-11.7-15.9-17.5-23.8-5.3-7.2-10.6-14.4-15.9-21.5-.7-.9-1.4-1.8-2-2.7-6-8.1-12-16.2-17.9-24.2-12-16.1-23.9-32.3-35.9-48.4-2-2.7-4.2-5.1-6-7.8-4.1-6.2-6.9-12.8-4.5-20.4,.2-.8,.3-1.3,.2-1.7,0,0,0-.2-.1-.2,0,0,0-.1-.1-.1,0,0-.2-.1-.3-.2-.4-.1-1.1,0-1.7,.2-2.1,.7-4,.7-5.6,.2-.4-.1-.8-.2-1.1-.4-.4-.2-.7-.3-1.1-.5-.3-.2-.7-.4-1-.7-.3-.2-.7-.5-1-.8-.3-.3-.7-.5-1-.8-.3-.3-.6-.6-.9-.9-.9-.9-1.7-1.8-2.6-2.7-.4-.4-.7-.8-1-1.1,0,0-.2-.2-.2-.3-.6-.7-1.2-1.4-1.8-2.1-.4-.6-.9-1.1-1.3-1.6-.2-.3-.5-.6-.7-.9-1.4-1.8-2.6-3.7-3.9-5.7-.3-.5-.6-1-.9-1.4-.4-.6-.7-1.2-1.1-1.8,0-.2-.2-.3-.3-.5t0,0c-.2-.3-.3-.6-.5-.9-.2-.3-.3-.7-.5-1-.2-.5-.4-1-.6-1.5-.6-1.6-.9-3.3-.7-5,0-.2,0-.3,0-.5,0-.5,.2-1,.3-1.4,0-.2,.1-.4,.2-.6,.1-.4,.3-.8,.5-1.2,0-.1,.1-.3,.2-.4,0-.1,0-.2,.1-.4,0-.1,0-.2,0-.3,0,0,0,0,0,0h0c0-.2,0-.3,0-.4,0,0,0-.2-.1-.2,0-.2-.2-.3-.4-.4-.2,0-.4-.2-.7-.2-.3,0-.6,0-.9,0s-.2,0-.3,0c0,0-.1,0-.2,0h-.6s0,0,0,0c0,0,0,0,0,0-.8,0-1.5-.2-2.3-.3-.4,0-.7-.2-1.1-.3-.3,0-.6-.2-.9-.3,0,0-.2,0-.3,0-.3-.1-.6-.2-.9-.4-.3-.1-.7-.3-1-.5-.3-.1-.5-.3-.8-.4-.2,0-.3-.2-.5-.3-.1,0-.2-.2-.3-.2-.1,0-.3-.2-.4-.3-.2-.2-.5-.3-.7-.5-.3-.2-.6-.5-.8-.7-.3-.2-.5-.5-.8-.8-1.1-1-2-2.2-2.9-3.5-3.5-5-7.4-9.8-10.9-14.8-.5-.7-1-1.5-1.5-2.2-.2-.3-.4-.6-.5-.9-.2-.3-.3-.6-.5-.9-.2-.3-.3-.6-.4-.9,0,0,0,0,0,0-.1-.3-.3-.6-.4-.9,0,0,0,0,0,0-.2-.5-.4-1-.5-1.5,0-.2-.1-.4-.2-.6,0-.2,0-.4-.1-.6,0-.2,0-.4-.1-.6-.1-.7-.2-1.4-.2-2.1-.2-3.7,.9-7.4,3.6-11.1,0-.1,.2-.3,.2-.4,0-.1,.2-.3,.2-.4,.2-.3,.4-.7,.6-1,.4-.7,.8-1.3,1.3-2,0-.2,.2-.3,.3-.5,.4-.7,.7-1.3,1-2,0-.1,.1-.3,.2-.4,0-.2,.1-.4,.2-.6,0-.2,.1-.4,.2-.6s0-.2,0-.3c.2-1.2,0-2.3-.7-3.4-.6-1-1.4-1.6-2.2-2.1,0,0-.2,0-.3-.1,0,0-.2,0-.2-.1-.1,0-.3,0-.4-.2-.2,0-.4-.1-.7-.2-.4,0-.7-.2-1.1-.2-.2,0-.5,0-.7,0-.5,0-.9,0-1.4,0-1.6,0-3.2,.3-4.7,.4-.6,0-1.1,.1-1.7,.2-1.9,.2-3.9,.6-5.8,.9-.7,.1-1.4,.2-2.1,.4-1,.2-1.9,.3-2.9,.4h-1c-.4,.2-.8,.2-1.2,.3h0c-.8,0-1.6,.1-2.4,.2-.8,0-1.5,0-2.3,0-.4,0-.8,0-1.2,0-.3,0-.6,0-.8-.1-.3,0-.5,0-.8-.1-.2,0-.3,0-.5,0-.7-.2-1.4-.4-2.1-.6-.2,0-.3-.1-.5-.2-.4-.2-.7-.3-1.1-.5-.2,0-.4-.2-.5-.3-.2,0-.3-.2-.5-.3-.2-.1-.4-.3-.6-.4-.6-.4-1.1-.9-1.6-1.4,0,0-.1-.1-.2-.2-.4-.4-.8-.9-1.1-1.4,0-.1-.2-.3-.3-.4-.4-.7-.7-1.4-.9-2.2,0,0,0-.2,0-.3,0-.4-.2-.8-.2-1.2,0-.4,0-.8,0-1.2,0-2.2,.7-4.5,2.1-6.9,.4-.6,.7-1.2,1.1-1.8,0,0,0,0,0-.1,.3-.4,.6-.8,.8-1.2t0,0c.4-.5,.7-1,1.1-1.5,.6-.7,1.2-1.5,1.8-2.2,.1-.2,.3-.3,.4-.4,1-1.1,2.1-2.2,3.2-3.3,.6-.6,1.2-1.1,1.8-1.6,.5-.4,.9-.8,1.4-1.2,.5-.4,1-.8,1.4-1.1,.6-.5,1.3-1,2-1.4,.7-.5,1.3-.9,2-1.3,.7-.4,1.4-.9,2.1-1.3,.7-.4,1.4-.8,2.1-1.2,1.4-.8,2.9-1.5,4.4-2.2,.8-.3,1.5-.7,2.3-1,.8-.3,1.5-.6,2.3-1,.1,0,.3,0,.4,0,.1,0,.2,0,.3,0,.3,0,.5,0,.8,0,.1,0,.2,0,.3,0,0,0,.1,0,.2,0,.2,.1,.5,.4,1,.8-1.3,1-2.6,1.9-3.9,2.8-2.1,1.5-4.1,2.9-6,4.5-.3,.2-.6,.4-.8,.7-1.1,.9-2.1,1.8-3.1,2.7-.4,.3-.8,.7-1.1,1.1-.4,.4-.7,.7-1.1,1.1-.3,.3-.6,.7-.9,1-.1,.2-.3,.3-.4,.4-.2,.2-.4,.5-.6,.7-.4,.5-.8,1-1.1,1.5-.1,.2-.3,.4-.4,.6-.2,.2-.4,.5-.6,.7,0,.1-.2,.3-.3,.4-.1,.2-.3,.4-.4,.6-1.5,2.8-2.6,5.8-.7,8.9,1.2,2,2.9,2.9,4.7,3.2,.2,0,.3,0,.5,0,.3,0,.6,0,.9,0,.2,0,.3,0,.5,0,.3,0,.7,0,1.1,0,.4,0,.7,0,1.1-.1,6.4-.8,12.7-2.3,19.2-1.9,2.5,.2,5,.5,7.5,1.1,2.4,.6,4.8,1.4,7,2.7,1.5,.8,2.7,1.8,3.5,2.9,0,0,.1,.2,.2,.3,.2,.3,.4,.7,.6,1,0,.2,.2,.4,.2,.6,0,.2,.2,.5,.2,.7,0,.2,0,.4,0,.6,.2,1.9-.4,4-1.9,6.1-9.4,13.8-9.4,14.5,.7,27.9,3,4,5.9,8.2,9.7,11.5,.3,.2,.6,.5,.8,.7,.3,.2,.6,.4,.8,.6,0,0,0,0,0,0,.3,.2,.6,.3,.8,.5,.4,.2,.9,.4,1.3,.6,.3,0,.5,.2,.8,.2,.1,0,.2,0,.3,0,.2,0,.3,0,.5,0,.5,0,1.1,.1,1.7,.1h0c.4,0,.8,0,1.2,0h0c.4,0,.8,0,1.2-.2,.3,0,.6-.1,.9-.2,1-.2,1.9-.4,2.9-.5,.2,0,.4,0,.6,0,1.1-.1,2.2-.2,3.3-.2s1,0,1.5,0c.3,0,.5,0,.8,0,.2,0,.5,0,.8,.1,.5,0,1.1,.2,1.6,.4,.1,0,.2,0,.4,.1,0,0,.2,0,.2,.1,0,0,.2,0,.2,.1,.1,.1,.3,.2,.4,.3,0,0,.1,.1,.1,.2,0,0,.1,.2,.2,.2,0,0,0,.2,.1,.3,0,.1,0,.2,.1,.4,.4,1.6-.9,2.6-1.9,3.5-.6,.5-1.3,.9-1.9,1.4-6.5,4.8-7.1,7.1-3.3,14.2,.3,.6,.7,1.2,1,1.8,.7,1.2,1.4,2.4,2.2,3.5,.4,.5,.7,1,1.1,1.5,.5,.7,1,1.4,1.6,2.1,.3,.4,.7,.9,1.1,1.3,.9,1,1.8,2.1,2.8,3.1,3.2,3.3,5.1,4.6,7.5,3.8,.2,0,.5-.2,.7-.3,.2,0,.4-.2,.6-.3,.2-.1,.4-.3,.7-.4,.2-.1,.3-.2,.5-.3,.3-.2,.6-.4,.8-.6,.2-.1,.3-.2,.5-.4,0,0,.1-.1,.2-.2,.1,0,.2-.2,.4-.3s.2-.2,.4-.3c6.5-5.5,12.7-11.3,19-17,4.8-4.3,9.8-8.5,14.3-13.1,1.1-1.1,2.2-2.1,3.3-3,.3-.2,.6-.5,.9-.7,.6-.4,1.2-.8,1.8-1.2,.3-.2,.6-.4,.9-.5,0,0,0,0,0,0,.2-.1,.4-.2,.6-.3,.1,0,.2-.1,.4-.2,.3-.1,.6-.3,.9-.4,.3-.1,.7-.3,1-.4,.3-.1,.7-.2,1-.3,0,0,.1,0,.2,0,.3,0,.6-.2,.9-.2,.4,0,.7-.1,1.1-.2,.5,0,1-.1,1.6-.1,.3,0,.5,0,.8,0,1.1,0,2.2-.1,3.3-.2,.1,0,.3,0,.4,0,.5,0,.9-.1,1.4-.2,.6,0,1.1-.2,1.7-.3,.5-.1,1.1-.2,1.7-.3,1.2-.2,2.4-.5,3.6-.7,.6-.1,1.2-.2,1.8-.3,0,.3-.2,.6-.3,.8,0,0,0,.2-.1,.2,0,.1-.1,.2-.2,.3,0,.2-.2,.3-.3,.4-.1,.2-.2,.3-.4,.4-.1,.2-.2,.3-.4,.4-.1,.1-.3,.3-.4,.4-.2,.2-.5,.4-.7,.6-.2,.2-.4,.3-.6,.5-.2,.2-.5,.3-.7,.5-.2,.2-.4,.3-.7,.5-4,3.5-8,6.9-12,10.4-8,6.9-16,13.8-23.9,20.7-4,3.5-8,6.9-11.9,10.4-5.6,4.9-7.3,9.6-5.1,15.1,.2,.4,.3,.8,.5,1.2,.3,.6,.6,1.2,1,1.8,0,0,0,0,0,0,.2,.3,.4,.6,.6,.9,.2,.3,.4,.6,.7,.9,30.2,40.7,60.4,81.4,90.7,122,.2,.3,.4,.5,.7,.8,.2,.2,.3,.3,.5,.5,.3,.3,.6,.6,.9,.9,3.6-5.2,2.1-10.1,0-14.8-3.9-8.4-10.5-14.9-16.1-22-16.2-20.3-32.7-40.4-46.5-62.4-1.6-2.5-3.1-5.1-4.5-7.7-.2-.4-.4-.7-.6-1.1,0,0,0-.2-.1-.3-.1-.3-.3-.6-.4-.9-.5-1-.9-1.9-1.3-2.9-.8-2.2-1.2-4-1.1-5.6,0,0,0,0,0-.1,0,0,0,0,0,0,0-.2,0-.4,0-.6,0-.2,0-.4,.2-.6,0-.2,.1-.4,.2-.5,0,0,0,0,0-.1,0-.2,.2-.3,.2-.5h0c.1-.2,.2-.3,.4-.5,.1-.2,.3-.4,.5-.5,.1-.1,.2-.2,.4-.3,.2-.2,.4-.3,.6-.4,.2,0,.3-.2,.5-.2h0c1.5-.8,3.6-1,6.3-.9,9.6,.7,19,2.2,28.2,5.4,.7,.2,1.3,.5,2,.7,.7,.2,1.3,.5,2,.7,.6,.2,1.3,.5,2,.8,1.3,.5,2.6,1,3.9,1.6,1.3,.5,2.5,1.1,3.8,1.7,.6,.2,1.1,.5,1.7,.8,0,0,.1,0,.2,0,.9,.4,1.8,.9,2.8,1.3,1,.5,1.9,1,2.8,1.4,.6,.3,1.2,.6,1.8,1,.6,.3,1.2,.7,1.8,1,.9,.5,1.8,1,2.7,1.6,1.8,1,3.5,2.1,5.3,3.2,.8,.5,1.6,1,2.3,1.5,4.8,3.2,9.6,6.6,14.2,10.3,1.1,.9,2.3,1.8,3.4,2.8,1.7,1.4,3.4,2.8,5,4.3-1.1,0-2.1-.1-3.1-.2m-550.8-168.1h0s0,0,0,0c0,0,0,0,0,0,0,0,0,0,.1,0h0Z"/><path class="uuid-82deb593-77d5-4264-9091-508de3aa16d1" d="M790.5,582.8c9.1-10.2,18.6-20.2,22.3-34,1.7-6.6-.6-13.3-6-17.4-5.2-3.9-11.4-5.3-17.6-6.2-10.3-1.5-20.7-1.2-31.1-.1-3.2,.3-4.2-.4-3.9-3.7,.4-3.6,0-7.2,0-10.9-.2-10.2-.5-20.5-4.4-30.2-4.7-11.5-13.8-15.2-25.2-10.2-2,.9-4,1.9-5.8,3.1-8.4,5.3-15.6,12.2-22.3,19.5-5.1,5.5-3.9,4.6-8.4,.2-9.5-9.2-19.1-18.4-31.3-24-14-6.3-24-1.6-28.5,13.1-.2,.6-.3,1.2-.5,1.8-3,12.4-2.7,25-1.5,37.6,.4,3.6-.6,3.8-3.6,3.8-10.2-.1-20.4-.2-30.6,1.5-22.8,3.7-28.9,17.3-16,36.4,5.3,7.9,12,14.6,19,20.9,2.7,2.4,3.1,3.7,.2,6.5-8.5,8.4-16.7,17.2-22.6,27.7-10.4,18.4-4.2,31.1,16.7,34.4,10.8,1.7,21.7,1.6,32.5,.6,4-.4,5,.9,4.9,4.5-.2,5.2-.2,10.4,0,15.6,.2,8.9,1.3,17.6,4.9,25.8,4.4,9.9,12.7,13.5,22.8,9.8,2.5-.9,4.9-2.2,7.2-3.5,9.2-5.7,17-13.1,24-21.2,2.5-2.9,3.7-2.5,6.1,0,8.4,8.5,17.2,16.7,27.7,22.7,18.4,10.7,31.4,4.3,34.6-16.8,1.7-11,1.3-22,.6-33-.2-3.3,.5-4.5,4.1-4.1,3.9,.4,7.9,.4,11.8,.2,10.2-.4,20.5-.9,30-5.2,10-4.6,13.5-13.2,9.5-23.4-1.4-3.5-3.3-6.8-5.5-9.9-4.1-5.8-8.9-11.1-14-16-2.6-2.5-7-5-7.1-7.7-.2-3.2,4.6-5.4,7.1-8.2m-167.3,62.6c-4.1,0-8.2,0-12.3,0-8.8,.5-17.6,.7-26.2-2.1-9.1-3-11.4-7.9-7.4-16.7,5.7-12.4,15.2-21.9,24.5-31.5,1.4-1.4,2.2-1.1,3.4,.2,6.8,7,13.5,14,20.4,21,1.1,1.1,1.3,2.4,1.3,3.9,0,7.1-.1,14.2,0,21.2,0,2.9-1.1,3.9-3.9,3.9m-12.2-59.9c4.5-5.4,9.2-10.6,13.9-15.8,.6,.5,1.2,1,1.7,1.5v35.5c-5.8-5.6-11.5-11-17-16.5-2-2,.4-3.6,1.3-4.7m6.9-16.3c-4.1,3.1-7.5,7.1-11.2,10.8-1.3,1.2-2.3,1.9-3.9,.4-8.5-7.9-17.2-15.8-22.8-26.2-5.2-9.4-3-14.8,7.2-17.8,12.2-3.6,24.8-3.7,37.4-2.9,2.2,.1,2.6,1.1,2.5,3-.1,3.6,0,7.2,0,12.5,2.4,7.8-1.8,14.5-9.1,20.1m80.7-67c8-8.5,15.8-17.1,26-23.1,10.1-5.8,15.8-3.6,19,7.6,3.5,12,2.8,24.3,2.7,36.5,0,2.3-1.3,2.5-3.1,2.4-3.9,0-7.9,0-13.6,0-8,2.4-15-1.7-20.7-9.4-2.8-3.7-6.5-6.8-9.8-10.2-1.2-1.2-2-2.1-.5-3.8m47.3,50.5c-3.2-3-6.3-6-9.5-9-3.1-3-6.3-5.9-9.4-8.9,.1-.4,.3-.7,.4-1.1,4.3,0,8.5,0,12.8,0,1.2,0,2.3,0,3.5,0,.1,0,.2,0,.3,0,.2,0,.4,0,.5,0,0,0,.1,0,.2,0,0,0,.1,0,.2,0,0,0,0,0,.1,0,0,0,.1,0,.2,.1,0,0,0,0,.1,.1,.2,.3,.4,.7,.5,1.2,0,0,0,.2,0,.2,0,.1,0,.2,0,.3,0,5.6,0,11.2,0,16.7m-110.5,74.9c1.1-.7,1.6,.4,2.3,1,5.1,4.6,10.2,9.1,15.4,13.7-.5,.7-.9,1.5-1.4,2.2-4.8,0-9.5,0-14.3,0-2.3,0-2.4-1.4-2.4-3.1,0-3.9,0-7.8,0-11.7,0-.7-.4-1.7,.5-2.1m17.7-93.9c-.7,.8-1.5,1.5-2.2,2.3-2.9,3-5.8,6.1-8.9,9.2-.8,.8-1.5,1.6-2.3,2.4-.8,.8-1.6,1.6-2.4,2.4-.8,.8-1.6,1.7-2.4,2.5v-8.8c0-2.7,0-5.2,0-7.6,0-1.9,.9-2.5,2.6-2.4,2,0,4,0,5.9,0h1.1c2.8,0,5.7,0,8.5,0h0s0,0,0,0Zm-15.9,84.8c-1.7-1.7-2.3-3.5-2.2-5.9,.1-7.9,0-15.8,0-23.6s0-15.8,0-23.6c0-2.4,.7-4.1,2.4-5.8,8.2-7.8,16.4-15.7,24.4-23.7,1.7-1.7,3.5-2.3,5.9-2.3,15.1,0,30.2,0,45.3,0,2.3,0,4.2,.5,5.8,2.3,8.1,8.6,16.3,17.1,24.6,25.5,1.8,1.8,2.5,3.7,2.5,6.3,0,15,0,29.9,0,44.9,0,2.4-.8,4.1-2.5,5.8-8.2,7.8-16.3,15.7-24.4,23.7-1.8,1.8-3.7,2.5-6.3,2.5-15.6,0-31.2,0-46.8,0-2.4,0-4.1-.6-5.8-2.4-7.6-8-15.3-15.9-23-23.7m108.7,6.6c0,6.9,0,12.3,0,17.8,0,1.5-1.2,1.6-2.4,1.6h-15.8c6-6.3,11.6-12.3,18.2-19.4m-56.6-116c1-1.1,2-1.4,3.2-.2,5.1,5.2,10.2,10.5,16.1,16.4h-34.5c5.1-5.4,10.2-10.8,15.2-16.2m-54.7-18.5c.4-2.2,.8-4.3,1.5-6.4,3-9.9,8-12.2,17.4-7.9,10,4.5,18,11.9,25.9,19.3,7.2,6.8,7.2,6.9,.1,13.8-2.2,2.2-4.7,4.2-6.8,6.6-6.4,7.5-13.5,12.8-24,9.6h-6.1c-8.2,0-8.4,0-8.6-8.1-.2-8.9-.8-17.9,.6-26.8m46.6,186.8c-6.5,6.9-13,13.7-20.8,19.2-1.8,1.3-3.7,2.4-5.6,3.4-8.6,4.4-14.1,2.2-17-7-.9-2.8-1.6-5.8-2-8.7-.7-5.6-1-11.3-1.5-16,.4-5.6-1.6-11.5,1.3-14.7,2.7-3,8.7-.3,13.1-1,9-1.4,15.6,1.8,21,8.9,3.3,4.4,7.5,8.1,11.4,12,1.4,1.4,1.6,2.4,.1,3.9m11.7-10.4c-.5,.5-1,1-1.5,1.5-.2,.2-.3,.3-.5,.5-.2,.2-.3,.3-.5,.4-.2,.1-.4,.2-.6,.3,0,0-.2,0-.3,.1-.2,0-.3,0-.5,0-.1,0-.3,0-.4,0-1,0-2-.5-2.8-1.3-1.8-1.9-3.7-3.8-5.5-5.7-1.2-1.3-2.5-2.6-3.8-3.9-1.3-1.3-2.6-2.7-3.9-4.1-.7-.7-1.3-1.4-2-2.1h0s35.3,0,35.3,0h0s0,0,0,0c-.6,.7-1.2,1.3-1.8,2-.6,.7-1.2,1.3-1.8,2-1.2,1.3-2.5,2.7-3.7,4.1-.6,.7-1.2,1.4-1.9,2-1.2,1.4-2.5,2.7-3.8,4.1,0,0,0,0,0,0m52.2,26.5c-2.9,10.2-8,12.7-17.6,8.3-12.6-5.7-22-15.5-31.7-24.9-1.5-1.5-.6-2.4,.5-3.5,6.7-6.4,13.4-12.9,20-19.4,1.3-1.3,2.7-1.3,4.3-1.3,7.4,0,14.8,.2,22.2,0,3,0,3.9,1.2,4,3.8,0,4.9,0,9.8,0,14.6,.5,7.6,.5,15.1-1.6,22.5m55.7-69.8c5.5,9.8,3.5,15.1-7.4,18.3-11.9,3.5-24.2,3.5-36.5,2.8-2.6-.1-3.1-1.4-3-3.6,.2-3.5,0-6.9,0-10.4-2.7-10,2.1-16.7,9.5-22.6,3.8-3,7.1-6.7,10.6-10.1,1.2-1.2,2.3-2.1,3.9-.6,8.4,8,17.1,15.8,22.9,26.2m-46.6-15.8v-33.5c5.2,4.7,10.6,9.6,16,14.6,1.1,1,1,2.3,0,3.3-5.1,5-10.2,10-16,15.6m13.9-30.8c-4.7-4.9-11.1-9.1-13.4-14.9-2.3-5.8-.6-13.3-.6-20.1,0-9.1,0-9.1,9.2-9.5,2.8-.1,5.6,0,8.5,0,8-.2,16-.3,23.8,2.1,9.9,3,12.2,8,7.9,17.4-4.4,9.6-11.4,17.2-18.4,24.9q-8.3,9-16.9,0"/><path class="uuid-3e8610e1-9bea-498a-93f3-1a03ed595117" d="M961.4,328.8c-24,9.8-49.2,13.8-75,15.7-30,2.2-60.1,.9-90.1,3.7-20.5,1.9-40.5,5.7-58.3,17.1-7.4,4.7-14.1,10.2-19.2,17.3-2.4,3.4-4.5,3.3-7.6,1.4-4.6-2.8-9.4-5.1-14.1-7.6,2-2.3,3.8-4.6,5.9-6.8,25-26,56.6-36.6,91.7-38.3,26.9-1.3,53.8,.6,80.8,.2,22.8-.3,45.2-3,66.5-11.7,4.1-1.7,6.3-3.4,4.5-8.2-1-2.8-1.2-5.8-1.7-8.8-6.6-36.4-13.2-72.7-19.8-109.1-5.9-32.7-11.7-65.3-17.5-98,0-1.2,0-2.5-.1-3.8-2.4-14-4.7-28.1-7.2-42.1-1.9-10.5-3.1-21.1-5.8-31.4,0-.5,0-1.1,.1-1.6,7.6,0,15.3,0,22.9,0,.2,.5,.5,1,.7,1.5-.4,.7-.2,1.3,.3,1.8-.1,1.3-.1,2.6,.6,3.8-.4,.7-.2,1.3,.4,1.8,0,1.7,0,3.3,.8,4.8-.4,.7-.3,1.3,.4,1.8,.2,1.3,.4,2.6,.6,4-.4,.7-.4,1.3,.3,1.8,4.4,25.4,8.7,50.8,13.1,76.2,6.2,35.8,12.5,71.6,18.7,107.4,5.4,30.8,10.8,61.7,16.3,92.5,1.9,10.5,2,10.4-8.2,14.6"/><path class="uuid-b59eab69-d578-4cdc-b7e6-222e304d60d0" d="M946.5,311.6c-1-2.8-1.2-5.8-1.7-8.8-6.6-36.4-13.2-72.7-19.8-109.1-5.9-32.7-11.7-65.3-17.5-98-2-10.3-4-20.6-6-30.8-3-15.2-5.1-30.6-8.7-45.7-2-.1-3.6,1-5.4,1.7-20.1,8-40.8,13.9-62.2,17.4-36.8,6-73.4,5.1-110-1.8-2.3-.4-3.6-.4-4.6,2.3-2.9,7.1-9.1,10.8-16.8,10.6-7.5-.3-12.5-4.1-14.7-11.1-.8-2.5-1.9-3.4-4.7-3.1-23.8,2.8-47.7,3.8-71.7,2.2-36-2.3-70.7-10-103.4-25.7q-8.1-3.8-9.8,4.8c-2.3,13.2-4.7,26.5-7.8,39.5-5.4,28.6-10.8,57.2-16.3,85.8-9.4,49.1-19,98.2-28.4,147.3-.9,4.5-1.5,9-2.7,13.4-.8,3.1,.1,4.5,2.8,5.9,14.3,7.5,29.6,11.3,45.5,13.3,26.5,3.4,53.2,1.7,79.7,3,22.2,1.1,44.3,3.2,65.3,11.3,22.3,8.6,40.7,22.4,54.7,41.7,1.4,1.7,3.7,2.8,3.3,5.6,.3-.3,.6-.3,.9,0,1.5,1.8,2.9,2.4,4.4,0,.7-1.2,1.1-2.9,2.9-3.2,1.1-1.2,2.1-2.5,3.2-3.7,2-2.3,3.8-4.6,5.9-6.8,25-26,56.6-36.6,91.7-38.3,26.9-1.3,53.8,.6,80.8,.2,22.8-.3,45.2-3,66.5-11.7,4.1-1.7,6.3-3.4,4.5-8.2m-6.9,.4c0,.1,0,.2,0,.4,0,.2-.1,.3-.2,.5,0,0,0,0,0,.1,0,0,0,0,0,.1,0,.1-.2,.2-.3,.3s0,0-.1,0c0,0,0,0-.1,0,0,0-.2,.2-.3,.2-.1,0-.3,.2-.4,.2-.2,0-.4,.2-.6,.3-.2,0-.4,.2-.7,.3-13.5,5.2-27.5,8-41.8,9.3-.4,0-.8,0-1.1,0-1.8,.2-3.7,.3-5.5,.4-1.1,0-2.2,.1-3.3,.2-1.1,0-2.2,.1-3.3,.1-2.3,.1-4.6,.2-6.9,.2-2.2,0-4.5,0-6.7,0h0c-1.9,0-3.8,0-5.7,0,0,0-.2,0-.2,0,0,0,0,0,0,0-1.9,0-3.7,0-5.6,0,0,0-.2,0-.3,0,0,0,0,0-.1,0-3.9,0-7.9-.2-11.9-.3-7.9-.2-15.9-.5-23.8-.6-2.8,0-5.5,0-8.3,0-2,0-3.9,0-5.9,0-1.2,0-2.3,0-3.5,0-1.2,0-2.4,0-3.5,.1-1.1,0-2.3,0-3.4,.2-.6,0-1.2,0-1.9,.1-1.8,.1-3.5,.2-5.3,.4-1.2,.1-2.3,.2-3.5,.3-1.1,.1-2.3,.2-3.4,.4-.9,.1-1.8,.2-2.7,.3-.9,.1-1.7,.2-2.6,.4-.6,0-1.2,.2-1.8,.3-.6,0-1.2,.2-1.7,.3-.6,0-1.2,.2-1.7,.3-1.2,.2-2.3,.4-3.4,.7-.3,0-.5,0-.8,.2-2.7,.5-5.3,1.1-7.9,1.8-1.9,.5-3.7,1-5.5,1.5-.4,.1-.8,.3-1.3,.4-.3,.1-.7,.2-1,.3-1.4,.5-2.9,.9-4.3,1.5-.8,.3-1.6,.6-2.3,.9-3.9,1.5-7.6,3.1-11.3,4.9-.7,.4-1.5,.7-2.2,1.1-.8,.4-1.6,.8-2.4,1.3-1.2,.7-2.5,1.4-3.7,2.1-.3,.2-.5,.3-.8,.5-.5,.3-1.1,.6-1.6,1-1.1,.7-2.2,1.4-3.2,2.1-.5,.3-1,.6-1.4,1-.5,.4-1,.7-1.6,1.1-.6,.4-1.1,.8-1.7,1.2-.1,0-.3,.2-.4,.3-.5,.4-1.1,.8-1.6,1.2,0,0-.1,.1-.2,.2-.6,.5-1.2,1-1.8,1.4-.5,.4-1.1,.9-1.6,1.3-.5,.4-1,.8-1.4,1.2-.6,.4-1.1,.9-1.6,1.4-2.2,1.9-4.3,3.9-6.3,6-2.4,2.4-4.6,4.8-6.9,7.4-.2,.2-.3,.4-.5,.6-.3,.3-.6,.7-.9,.9-.1,.1-.3,.2-.4,.3-.6,.5-1.1,.7-1.7,.6-.1,0-.2,0-.3,0-.1,0-.2,0-.3-.1-.1,0-.2-.1-.4-.2-.1,0-.3-.2-.4-.3-.1-.1-.3-.2-.4-.4-.1-.1-.3-.3-.4-.5-.2-.2-.5-.5-.7-.8-1.4-1.8-2.8-3.4-4.2-5.1s-2.9-3.2-4.4-4.8c-3-3.1-6-6-9.2-8.8-.7-.6-1.5-1.3-2.2-1.9-2.6-2.1-5.2-4.1-7.9-6-.8-.5-1.5-1-2.3-1.5-.9-.6-1.7-1.1-2.6-1.7-.8-.5-1.5-1-2.3-1.4-.5-.3-1-.6-1.5-.9-.5-.3-1-.6-1.5-.9-.7-.4-1.3-.8-2-1.1-.4-.2-.9-.5-1.3-.7-.8-.4-1.5-.8-2.3-1.2-.9-.4-1.8-.9-2.6-1.3-.9-.4-1.9-.9-2.8-1.3-1-.4-1.9-.8-2.9-1.2-2.8-1.2-5.6-2.2-8.5-3.2-.3,0-.6-.2-.8-.3h-.2c-.8-.3-1.5-.6-2.3-.8-.8-.3-1.6-.5-2.5-.8-2.4-.7-4.8-1.4-7.2-2-.8-.2-1.7-.4-2.5-.6-.1,0-.2,0-.3,0-.7-.2-1.4-.3-2.2-.5-.2,0-.4,0-.7-.1-.2,0-.5,0-.7-.2-1.1-.2-2.1-.4-3.2-.6-.9-.2-1.8-.3-2.8-.5-27-4.6-54.3-3.8-81.5-4.4-2,0-4.1-.1-6.1-.2-1,0-2,0-3.1,0-1.1,0-2.2,0-3.4-.1-1,0-2.1,0-3.1-.2-2.9-.1-5.8-.3-8.7-.5-1.3-.1-2.7-.2-4-.3,0,0-.2,0-.3,0-1.3-.1-2.5-.2-3.8-.4-2.8-.3-5.6-.7-8.4-1.1-.5,0-1-.2-1.6-.2-1.4-.2-2.7-.5-4.1-.7-1-.2-2-.4-2.9-.6-1-.2-2-.4-3-.7-1.3-.3-2.6-.7-4-1-1.2-.3-2.3-.6-3.5-1-.5-.2-1-.3-1.5-.4-.5-.2-1-.3-1.5-.5-.5-.2-1-.3-1.5-.5-.6-.2-1.3-.5-1.9-.7-.5-.2-1.1-.4-1.6-.6-.5-.2-1.1-.4-1.6-.6-.8-.3-1.7-.7-2.5-1.1-.8-.4-1.7-.7-2.5-1.1-.2,0-.5-.2-.7-.3-.2-.1-.5-.2-.7-.3,0,0-.2,0-.3-.2,0,0-.2-.1-.2-.2,0,0-.1,0-.2-.1-.1,0-.2-.2-.3-.3,0,0,0,0,0-.1,0,0,0-.1,0-.2,0,0,0-.1,0-.2-.1-.5,0-1.1,.3-1.8,2.6-13.9,5.1-27.8,7.8-41.7,7.8-40.5,15.6-80.9,23.5-121.4,7.5-38.6,15-77.2,22.4-115.8,.5-2.5,.6-4.1,4-2.5,48.4,22.5,99.6,27.9,152.1,24.9,6.1-.4,12.3-.9,18.3-1.6,2.2-.3,3.3,.3,4.5,2.2,9.5,14.9,28.9,15.8,39.7,1.8,1.6-2,2.9-2.6,5.5-2.2,31.2,5.3,62.6,6.5,94.1,2.6,24-3,47.3-8.7,69.9-17.2,3.3-1.2,4.5-1,5.1,2.8,4,22.9,8.3,45.8,12.4,68.7,.2,1.3,0,2.8,0,4.2,.1,.1,.2,.3,.3,.4,.3,.4,.5,.8,.7,1.2,0,.1,.1,.3,.2,.4,0,0,0,.1,0,.2,0,0,0,.1,0,.2,0,.1,0,.3,.1,.4,0,.1,0,.3,.1,.4,0,.2,0,.3,0,.4,0,.2,0,.3,0,.5,0,.2,0,.5,0,.7v.4c0,.2,0,.4,0,.7,0,.1,0,.2,0,.4,0,.2,0,.4,0,.6,0,.8,0,1.6,0,2.3h0c2.8,9,3.8,18.4,5.5,27.7,7.5,40.7,14.8,81.4,22.2,122.2,2.5,13.6,4.8,27.3,7.2,40.9,.2,.9,.4,1.9,.6,2.9,.1,.6,.3,1.1,.5,1.7,0,.2,.1,.3,.2,.5,0,.1,0,.2,0,.4,0,.1,0,.2,0,.3v.2c0,0,0,.1,0,.2,0,.2,0,.5,0,.7m-254,71.3h0s0,0,0,0h0s0,0,0,0h0Z"/><path class="uuid-3e8610e1-9bea-498a-93f3-1a03ed595117" d="M682.3,377.7c-4.7,2.6-9.2,6.6-14.1,7.3-5.4,.7-7.2-6.2-10.7-9.6-18.6-18.6-41.4-28.7-66.9-33.5-17.8-3.3-35.9-4.4-54-4.8-24.5-.5-49.1-.3-73.5-3.7-16.1-2.2-31.8-6.3-46.4-13.7-3.2-1.6-3.8-3.5-3.1-6.7,13.8-69.6,27.6-139.2,41.3-208.8,5.7-29,11.4-58,17.1-87.1,3.4-.1,6.9-.3,10.3-.3,5.8,0,5.7,0,4.7,5.8-1.8,11.1-3.5,22.2-5.3,33.4-5.4,28.6-10.8,57.2-16.3,85.8-9.4,49.1-19,98.2-28.4,147.3-.9,4.5-1.5,9-2.7,13.4-.8,3.1,.1,4.5,2.8,5.9,14.3,7.5,29.6,11.3,45.5,13.3,26.5,3.4,53.2,1.7,79.7,3,22.2,1.1,44.3,3.2,65.3,11.3,22.3,8.6,40.7,22.4,54.7,41.7"/><path class="uuid-6e00c53a-f3fc-403e-b9f4-b72fbcbae75e" d="M1233,1202.8c-4.1,5.6-7.9,11.3-11.5,17.2-1.8,2.9-3.2,2.8-5.9,1.2-35.8-20.3-71.6-40.4-107.4-60.6-17.9-10.1-35.8-20.3-53.8-30.2-3.1-1.7-3.2-2.9-1.2-5.5,3.4-4.3,6.6-8.8,9.8-13.3,.7-.9,1.2-1.9,2.9-1.7,.7,.3,1.6,.8,2.6,1.3,54.3,28.7,108.7,57.5,163,86.2,2.7,1.4,3.5,2.5,1.4,5.3"/><path class="uuid-6e00c53a-f3fc-403e-b9f4-b72fbcbae75e" d="M285.7,1001.7c0,1.9-1.7,1.9-3,2.4-18.6,7.1-37.1,14.2-55.7,21.2-39,14.8-78.1,29.5-117.2,44.4-3.8,1.4-5.3,1.1-6.7-2.8-2.1-5.9-4.9-11.5-7.5-17.2-1.3-2.7-1-3.8,2.1-4.9,34.1-12.1,68-24.4,102-36.6,24-8.6,48-17.2,71.9-25.9,3.1-1.1,4.6-.9,5.9,2.4,2,5.1,4.7,9.9,7,14.9,.3,.7,.7,1.4,1,2.2"/><path class="uuid-98c85cce-433b-48bd-bb3e-fbc16c1f388a" d="M1336.1,936.8c-2.1,5.7-3.9,11.6-5.7,17.4-.8,2.5-1.9,3.3-4.7,2.6-39.9-9.6-79.8-19-119.7-28.5-21.2-5-42.3-10.2-63.5-15.2-2.4-.6-3.5-.8-2.4-3.8,2.2-5.9,3.6-12,5.6-17.9,.4-1.1,.2-3,1.7-3.1,5.7,1.3,10.9,2.5,16.1,3.7,30.2,7,60.4,14.1,90.6,21.2,26.5,6.2,53,12.7,79.5,18.8,3.3,.8,3.6,1.8,2.5,4.7"/><path class="uuid-98c85cce-433b-48bd-bb3e-fbc16c1f388a" d="M1300.5,1050.5c-2.7,5.5-5.3,11.1-7.3,16.8-1.3,3.8-3.2,3.7-6.3,2.5-26.3-10.1-52.7-20-79-30-30.6-11.6-61.2-23.2-91.8-34.7q-5.7-2.1-3.2-7.6c2.1-4.7,4.3-9.4,6.6-14.1,.5-1,.7-2.6,3.1-1.9,4.7,1.6,9.8,3.4,15,5.2,53.5,19.2,106.9,38.5,160.4,57.5,3.9,1.4,4.2,2.8,2.5,6.2"/><path class="uuid-98c85cce-433b-48bd-bb3e-fbc16c1f388a" d="M256.9,911.8c0,1.5-1.6,1.1-2.7,1.3-12.8,3.1-25.6,6.2-38.4,9.3-29.7,7.1-59.5,14.1-89.2,21.1-18.8,4.5-37.5,8.9-56.2,13.5-2.3,.6-3.4,.1-4.1-2.2-1.9-6.3-4-12.5-6.2-18.8-.8-2.3-.5-3,2.2-3.6,25.2-5.8,50.4-11.8,75.5-17.7,33.4-7.9,66.8-15.7,100.2-23.7,11.7-2.8,11.7-3.1,15.2,8.3,1.2,4,2.4,8.1,3.7,12.6"/><path class="uuid-6e00c53a-f3fc-403e-b9f4-b72fbcbae75e" d="M341.8,1130.5c-44.1,24.6-88,49.5-132,74.3-9.8,5.6-19.7,11.1-29.5,16.6-.8,.5-1.6,.9-2.5,1.4-1.4,0-1.7-1.2-2.3-2-4-6-7.9-12.1-12.1-18-2.1-2.9-1.3-3.9,1.5-5.3,38.3-20.1,76.5-40.4,114.7-60.7,16.1-8.5,32.2-17,48.2-25.6,3-1.6,4.6-1.4,6.4,1.6,2.6,4.1,5.6,8,8.6,11.8,1.9,2.5,2.5,3.8-1,5.8"/><path class="uuid-6e00c53a-f3fc-403e-b9f4-b72fbcbae75e" d="M1319,998.3c-2.4,5.6-4.4,11.4-6.2,17.2-1,3.2-2.3,3.6-5.4,2.6-49.7-17-99.5-33.8-149.3-50.7-8.8-3-17.5-6-26.2-8.9-1.8-.6-3.2-.9-2.3-3.5,2-5.9,3.7-12,5.6-18,.2-.8,.4-1.8,1.1-2,3.1,.9,5.6,1.6,8.1,2.4,57.1,18.1,114.2,36.2,171.3,54.2,3.9,1.2,5.1,2.4,3.3,6.5"/><path class="uuid-6e00c53a-f3fc-403e-b9f4-b72fbcbae75e" d="M263.8,958.8c-48.4,16.2-96.6,32.6-144.9,49-9.8,3.3-19.5,6.7-29.3,10-1,.4-2.1,.7-3.1,1-1.9,.3-2-1.4-2.3-2.4-2.5-6.8-4.8-13.6-7.3-20.3-1-2.8,.6-3.1,2.6-3.7,16.1-5,32.2-10.2,48.3-15.3,42.8-13.6,85.5-27.1,128.3-40.7,3.1-1,5.3-1.5,6.1,3,.9,4.7,2.7,9.3,4.4,13.9,1,2.9,1,4.3-2.7,5.6"/><path class="uuid-6e00c53a-f3fc-403e-b9f4-b72fbcbae75e" d="M302.5,1050.5c-.5,1.9-2.4,2-3.7,2.6-15,6.7-30.1,13.2-45.1,19.8-41,18-81.9,36.1-122.8,54.2-3,1.4-4.7,1.6-6.4-1.9-2.6-5.7-5.8-11.2-9-16.6-1.5-2.6-1.5-3.7,1.7-5,21.4-8.9,42.7-18,64-27,34.9-14.7,69.8-29.4,104.7-44.1,5.8-2.4,5.7-2.5,8.7,3.1,2.2,4.2,4.4,8.3,6.7,12.4,.5,.8,.8,1.7,1.3,2.5"/><path class="uuid-6e00c53a-f3fc-403e-b9f4-b72fbcbae75e" d="M1282.3,1105.8c-.3,.6-.5,1.2-.8,1.8-3.4,6.3-7.1,12.6-10.3,19.1-1.6,3.2-3.4,1.3-5,.6-21.8-9.5-43.6-19.1-65.3-28.7-34.4-15.1-68.7-30.3-103.2-45.3-3.4-1.5-4.1-2.7-2.1-6,2.8-4.4,5.2-9,7.4-13.7,1.3-2.7,2.4-3.3,5.3-2.1,30.5,13,61.1,25.9,91.7,38.8,26.4,11.1,52.8,22.2,79.2,33.4,1.1,.5,3,.3,3.1,2.2"/><path class="uuid-98c85cce-433b-48bd-bb3e-fbc16c1f388a" d="M244.1,867.2c-16.1,2.4-32.3,4.8-48.4,7.3-17.2,2.6-34.4,5.4-51.6,8-19.1,2.9-38.1,5.8-57.2,8.8-9.3,1.4-18.6,2.8-27.9,4.3-.9,.2-1.8,.4-2.8,.6-2.5,.5-2.9-1.2-3.3-3-1.3-5.8-2.7-11.6-4.2-17.4-.6-2.3-.2-3.3,2.4-3.7,11.8-1.7,23.6-3.6,35.4-5.5,16.9-2.6,33.8-5.3,50.7-7.9,19.4-3,38.8-5.9,58.1-9,14.1-2.2,28.2-4.4,42.3-6.7,3-.5,4.9-.8,5.4,3.2,.7,5.9,2.2,11.7,3.5,17.5,.6,2.4-.3,3.2-2.4,3.5"/><path class="uuid-98c85cce-433b-48bd-bb3e-fbc16c1f388a" d="M1347.7,876.1c-1.5,5.8-2.8,11.6-4.2,17.4-.4,1.7-1,3-3.3,2.4-8.3-1.3-16.9-2.6-25.4-3.9-20-3.1-40-6.1-60-9.2-19.5-3-39.1-6.2-58.6-9.2-14-2.2-27.9-4.5-41.9-6.2-4.2-.5-4.9-2.1-4-5.7,1.3-5.5,2.6-11,3.5-16.6,.4-2.8,2-2.8,3.9-2.5,21.5,3.4,43.1,6.9,64.6,10.3,24.3,3.8,48.7,7.4,73,11.2,16.6,2.6,33.1,5.3,49.8,7.8,3.2,.5,3.4,1.6,2.7,4.2"/><path class="uuid-6e00c53a-f3fc-403e-b9f4-b72fbcbae75e" d="M1208,1249.4c-4.7,5.5-9.4,11.1-13.8,16.8-1.8,2.2-3.2,1.6-5.1,.5-40.6-23-81.3-46.1-121.9-69.1-14.2-8-28.4-16.2-42.6-24-2.9-1.6-3.2-2.6-.9-5,3.2-3.4,6.1-7.2,9.1-10.8,.7-.8,1.2-1.9,2.9-1.9,.7,.3,1.7,.8,2.6,1.3,56.3,29.6,112.6,59.2,169,88.8,2.1,1.1,2.4,1.7,.8,3.6"/><path class="uuid-6e00c53a-f3fc-403e-b9f4-b72fbcbae75e" d="M371.8,1173.5c-22.7,12.7-45.3,25.6-68,38.4-31.9,18.1-63.9,36.1-95.8,54.3-3.1,1.8-4.6,1.5-6.7-1.4-4.5-6-9.5-11.7-14.5-17.7,57.3-30.1,114.2-60.1,171.1-90,2.8-1.5,4.6-1.6,6.6,1.2,2.5,3.6,5.4,7,8.4,10.2,2.5,2.6,1.6,3.5-1.1,5"/><path class="uuid-6e00c53a-f3fc-403e-b9f4-b72fbcbae75e" d="M1172.9,1289.9c-.5,.6-1,1.2-1.6,1.7-4.6,5-9.3,9.9-13.7,15-2.1,2.5-3.5,2.5-6.2,.7-39.4-25.6-78.9-51-118.3-76.4-12.5-8.1-25.1-16.2-37.7-24.2-2.4-1.5-3-2.5-.7-4.7,3.4-3.2,6.5-6.8,9.6-10.4,1.7-2,3-2.3,5.4-.9,41.1,24.8,82.3,49.6,123.4,74.3,12.4,7.5,24.7,14.9,37.1,22.4,1,.6,2.5,.7,2.6,2.4"/><path class="uuid-6e00c53a-f3fc-403e-b9f4-b72fbcbae75e" d="M401,1206.7c-31.3,20.1-62.6,40.3-93.9,60.5-20.7,13.4-41.4,26.8-62.2,40.1-.9,.6-1.8,1.2-2.5,1.6-1.9,.2-2.5-1-3.3-1.9-4.6-5-9.1-10.1-13.8-14.9-2.3-2.3-1.6-3.3,.9-4.8,31.2-18.7,62.4-37.5,93.6-56.3,22.1-13.3,44.1-26.5,66.2-39.9,2.5-1.5,4.1-1.9,6.2,.6,3,3.7,6.2,7.1,9.5,10.5,2,2.1,1.6,3-.7,4.5"/><path class="uuid-6e00c53a-f3fc-403e-b9f4-b72fbcbae75e" d="M1256.4,1153.8c-.2,.4-.4,.8-.7,1.2-3.8,5.2-7.6,10.4-11.3,15.7-1.6,2.2-3,.8-4.4,0-27.4-13.5-54.8-27.1-82.2-40.6-27.7-13.7-55.4-27.4-83.1-41-3.3-1.6-4.9-2.7-1.7-6.1,3.1-3.4,5.6-7.2,8.1-11,1.6-2.5,3.1-2.3,5.4-1.2,55.8,26.9,111.6,53.8,167.3,80.7,1,.5,2.7,.4,2.6,2.3"/><path class="uuid-6e00c53a-f3fc-403e-b9f4-b72fbcbae75e" d="M323.1,1088.5c-22.1,10.8-44.2,21.8-66.2,32.7-33.4,16.5-66.9,33.1-100.3,49.6-.8,.4-1.7,.8-2.5,1.2-1.1,0-1.6-.9-2.1-1.7-3.6-5-7.1-10-10.9-14.9-2.4-3.1,.5-3.3,2.1-4.1,31.9-15.4,63.8-30.7,95.7-46.1,23.7-11.4,47.5-22.8,71.1-34.3,2.6-1.2,4-1.2,5.7,1.3,2.7,4,5.5,8.1,8.6,11.8,2.2,2.5,1.4,3.3-1.2,4.6"/><path class="uuid-776a6c50-3809-430c-abb9-dd9e94f22655" d="M246.7,814.4c-11.6-22.1-23.1-44.3-34.4-66.6-1.6-3.2-3.4-4.1-6.8-4.1-64.1,.1-128.2,0-192.3,.1-1.6,0-3.4-.5-5.2,.6,.3,.7,.5,1.5,.9,2.1,12,23.2,24,46.3,35.9,69.6,1.3,2.6,3.1,3,5.7,3,64.6,0,129.1,0,193.7,0,4.6,0,4.5-1.2,2.7-4.7m-2.8,1.7s0,0-.1,0c0,0-.2,.1-.3,.2,0,0-.1,0-.2,0-.1,0-.3,0-.4,0-.4,0-1,0-1.6,0-11.8,0-23.6,0-35.5,0h-59.6c-14.1,0-28.2,0-42.3,0s-33.6,0-50.5,0h-.3c-3.5,0-5.6-.7-7.4-4.1-10-19.9-20.4-39.7-30.5-59.5-3.3-6.4-3.1-6.4,3.9-6.4,41.6,0,83.1,0,124.7,0,19.9,0,39.8,0,59.6,0,.2,0,.4,0,.6,0s.4,0,.6,0c.2,0,.3,0,.5,0,0,0,0,0,0,0,.2,0,.3,0,.5,0,.7,.1,1.3,.3,1.8,.5,.3,.2,.6,.3,.9,.5,.3,.2,.5,.4,.8,.7,0,0,0,0,0,0,.3,.3,.5,.5,.7,.9,.4,.5,.7,1,1,1.7,10.6,20.9,21.4,41.7,32.4,62.4,.3,.5,.5,1,.6,1.3,0,.2,0,.3,.1,.4,0,.4,0,.7,0,.9,0,0,0,.1-.1,.1"/><path class="uuid-776a6c50-3809-430c-abb9-dd9e94f22655" d="M1393.7,743.7h-5c-62.2,0-124.4,.2-186.6-.2-7.8,0-11.5,2.3-14.8,9.2-10.8,22-22.3,43.6-33.9,66,1.3,.1,1.9,.2,2.6,.2,65.5,0,131,0,196.6,0,3.2,0,4.3-1.6,5.5-4,11.6-22.5,23.2-45,34.8-67.5,.6-1.1,1.6-2,.9-3.8m-5.2,7.1c-10.8,20.8-21.6,41.6-32.2,62.5-.1,.2-.2,.4-.3,.6-.2,.3-.3,.5-.5,.7-.2,.2-.4,.5-.6,.7,0,0-.2,.2-.3,.2-.3,.2-.5,.3-.8,.5,0,0-.2,0-.3,0-.1,0-.2,0-.3,.1,0,0-.2,0-.3,0,0,0-.1,0-.2,0-.1,0-.3,0-.4,0,0,0,0,0,0,0,0,0-.2,0-.3,0-.2,0-.3,0-.5,0-.3,0-.7,0-1.1,0-9.4,0-18.8,0-28.2,0-22,0-43.9,0-65.9,0h-92.2c-2.3,0-3.8,0-4.7-.2-.1,0-.2,0-.3,0-.1,0-.2,0-.3-.1,0,0-.1,0-.2-.1,0,0,0,0-.1-.1,0,0-.1-.2-.1-.3,0-.2,0-.6,.1-1,0-.1,0-.2,.1-.4,.2-.5,.4-1,.8-1.6,0-.2,.2-.4,.3-.7,0-.2,.2-.3,.2-.5,.2-.3,.3-.6,.5-.9,6.1-11.6,12-23.2,17.9-34.8,.8-1.6,1.7-3.2,2.5-4.8,.8-1.6,1.7-3.2,2.5-4.8,2.8-5.3,5.5-10.6,8.2-16,0-.1,.1-.3,.2-.4,0-.1,.1-.2,.2-.4,0-.1,.1-.2,.2-.3,0-.1,.1-.2,.2-.3,.2-.3,.4-.5,.6-.7,0,0,0,0,0,0,.2-.2,.4-.4,.7-.6,0,0,.2-.1,.3-.2,0,0,.2-.1,.3-.2,.2-.1,.4-.2,.6-.3,.1,0,.3,0,.4-.1,.2,0,.3,0,.5-.1,.3,0,.6-.1,.9-.1,.3,0,.6,0,.9,0,0,0,.2,0,.3,0,31.5,0,63.1,0,94.6,0h2.2c30.4,0,60.9,0,91.3,0,.4,0,.7,0,1,0,.8,0,1.4,.1,1.8,.3,0,0,.1,0,.2,0,0,0,.1,0,.2,.1,0,0,0,0,.1,.1,0,0,.2,.2,.2,.3,0,0,0,0,0,0,0,0,0,.1,0,.2,0,0,0,0,0,0,0,0,0,.2,0,.3,0,.7-.4,1.6-1.1,2.9"/><path class="uuid-2691df18-61d8-47a1-bf3a-ef18051c42d6" d="M907.5,95.7c-2-10.3-4-20.6-6-30.8-3-15.2-5.1-30.6-8.7-45.7,.3-.7,.9-.8,1.6-.7,2.7,10.3,3.9,20.9,5.8,31.4,2.5,14,4.8,28.1,7.2,42.1,.2,1.2,.1,2.5,.1,3.8"/><path class="uuid-2691df18-61d8-47a1-bf3a-ef18051c42d6" d="M487,22.6c1-5.8,1-5.9-4.7-5.8-3.5,0-6.9,.2-10.3,.3,4.8-3,9.9-1.3,14.9-1.1,.9,0,1.8,.3,2.7,.5-2.3,13.2-4.7,26.5-7.8,39.6,1.7-11.1,3.4-22.2,5.3-33.4"/><path class="uuid-2691df18-61d8-47a1-bf3a-ef18051c42d6" d="M917.4,16.8c-7.6,0-15.3,0-22.9,0,.7-1.5,2-1.3,3.2-1.3h16.4c1.2,0,2.6-.2,3.2,1.3"/><path class="uuid-2691df18-61d8-47a1-bf3a-ef18051c42d6" d="M695,381.9c-1.4,.5-2.1,1.8-2.9,2.9q-3.5,4.4-6.4-.5c.3-.3,.6-.6,.8-.9,1.5,1.8,2.9,2.4,4.4,0,.7-1.2,1.1-2.9,2.9-3.2,.4,.6,.7,1.2,1.1,1.8"/><path class="uuid-2691df18-61d8-47a1-bf3a-ef18051c42d6" d="M921.4,38.1c-.7-.5-.7-1.1-.3-1.8,.9,.5,1.1,1,.3,1.8"/><path class="uuid-2691df18-61d8-47a1-bf3a-ef18051c42d6" d="M920.5,32.4c-.6-.5-.8-1.1-.4-1.8,.8,.4,1.1,1,.4,1.8"/><path class="uuid-2691df18-61d8-47a1-bf3a-ef18051c42d6" d="M919.4,25.8c-.6-.5-.8-1.1-.4-1.8,1,.4,1.4,1,.4,1.8"/><path class="uuid-2691df18-61d8-47a1-bf3a-ef18051c42d6" d="M918.4,20.2c-.5-.6-.7-1.2-.3-1.8,1,.5,1.3,1.1,.3,1.8"/><path class="uuid-f8b2b877-8d34-4d53-ba2f-6bcab93dcd58" d="M1041.4,362.1c-7,5.1-14.1,9.6-19.1,16.5-.5,.8-1.2,1.5-1.6,2.3-1.5,2.8-2.6,5.8-.7,8.9,2.1,3.3,5.4,3.7,8.7,3.2,6.4-.8,12.7-2.3,19.2-1.9,5.1,.3,10,1.3,14.5,3.8,5.1,2.8,6.1,7.4,2.8,12.2-9.4,13.8-9.4,14.5,.7,27.9,3,4,5.9,8.2,9.7,11.5,2.8,2.4,5.8,3.3,9.6,2.6,3.5-.7,7.1-1.4,10.8-.7,1.4,.3,2.9,.5,3.3,2.2,.4,1.6-.9,2.6-1.9,3.5-.6,.5-1.3,.9-1.9,1.4-6.5,4.8-7.1,7.1-3.3,14.2,2.6,4.8,5.9,9.3,9.8,13.2,5,5.1,6.8,5.4,12.3,.7,6.5-5.5,12.7-11.3,19.1-17,4.8-4.3,9.8-8.5,14.3-13.1,4.4-4.4,9-7.5,15.5-7.6,4.5,0,9-1.4,13.8-2.2-.9,2.7-3.1,3.8-4.8,5.2-15.9,13.9-31.9,27.6-47.8,41.5-7.1,6.2-7.9,12.3-2.3,19.9,30.1,40.7,60.4,81.4,90.7,122,.5,.7,1.2,1.3,2.1,2.2,3.6-5.2,2.1-10.1,0-14.8-3.9-8.4-10.5-14.9-16.1-22-16.2-20.3-32.7-40.3-46.5-62.4-2.6-4.1-5.1-8.3-6.9-12.9-2.9-7.5,0-11.6,8.3-11,9.6,.7,19,2.2,28.2,5.4,21.3,7.3,39.9,19.1,57.7,34.8-5.5-.3-9.9-.9-14.3-.6-6.5,.5-11.4-2-16.6-5.7-13.1-9.4-26.3-18.9-42-24-1.1-.4-2.5-1.5-3.4-.1-.8,1.1,.1,2.4,.7,3.5,7.3,13.7,16.7,25.9,25.6,38.5,9.5,13.6,21.7,25,31.9,38,7,8.9,12.4,18.3,12.9,30.2,.3,8-3.5,13.7-8.5,18.6-2.8,2.8-7.5,1.3-11.3,2.5-4.9,1.5-7.7-.8-10.7-4.8-29.6-40.3-59.5-80.5-89.3-120.7-2-2.7-4.2-5.1-6-7.9-4.1-6.2-6.9-12.7-4.5-20.4,.8-2.5-.5-2.5-2.1-2-5,1.7-8.5-.7-11.8-3.9-5.3-5.2-9.6-11.2-13.4-17.6-2.3-3.9-3.7-8-1.5-12.5,.9-1.9,0-2.4-1.8-2.4-6.5,0-11.2-3.3-14.9-8.6-3.5-5-7.4-9.8-10.9-14.8-5.2-7.2-6.2-14.6-.8-22.3,.2-.3,.3-.5,.5-.8,1.9-3.4,5.3-7.2,3-10.8-2.5-3.9-7.7-2.8-11.8-2.4-4.5,.4-9,1.4-13.5,2-2.3,.3-4.7,.5-7.1,.2-10.1-1.1-14.9-9.3-9.8-17.9,7-11.7,17.8-18.8,30.3-23.7,.6-.2,1.2-.2,1.9-.1,.3,0,.5,.3,1.2,.8"/><path class="uuid-f8b2b877-8d34-4d53-ba2f-6bcab93dcd58" d="M209,457.1c2.2-.9,3.4,1,4.9,1.8,15.5,8.9,30.9,18.1,46.8,26.4,10.4,5.4,15.1,4.1,21.7-5.7,3.8-5.6,7.8-11,11.5-16.7,3.6-5.6,6.4-11.5,4.9-19.1-9.1,6.7-15.7,14.4-18,25.4-2.3-1.2-3.5-3.1-4.8-4.8-7.2-8.8-5.9-18.3,3.6-24.6,6.3-4.2,12.6-8.3,18-13.7,4.9-4.9,9-10.5,12.7-16.4,6.1,5.4,7,10.3,3.2,16.9-1.8,3.2-4.1,6.2-4.3,10.2,2.6-.3,3.7-2.2,4.8-3.8,6.5-9.5,12.9-19,19.5-28.4,1.3-1.9,1.2-2.8-.8-4-12.7-7-25.2-14.1-37.9-21.1-2-1.1-4.3-2-6.8-1.5-5.1,1-8.5-1.1-10.6-5.7-.6-1.4-1.5-2.7-2.1-4.2-.8-2-2.8-4.6-1.6-6,1.5-1.8,3.4,1.3,5.3,1.4,4.6,.4,9.2-.4,13.5-1.7,4.3-1.3,7.1-1,8.1,4.1,.7,3.8,3.3,6.1,6.5,8.1,10.6,6.5,21,13.2,31.5,19.9,1.1,.7,2.1,1.4,3,2.2,7.9,7.8,8.1,9.9,2,19.1-4.8,7.2-9.7,14.3-14.3,21.6-4.9,7.8-10.2,13.9-20.6,8.8-.7,3.7,.6,6.7,1.5,9.6,1.5,4.9,.2,9-2.4,12.9-5.3,8-10.7,16-16.2,23.8-6.1,8.6-13.6,11-23.5,7.3-15.2-5.7-28.6-15.1-43.1-22.1-8.8-4.3-12.6-11.7-15.9-19.9h0Z"/><path class="uuid-f8b2b877-8d34-4d53-ba2f-6bcab93dcd58" d="M266.6,523.3c-1.8-3.4-2-7.8-5.8-9.9-5-2.9-10.2-5.5-15.9-7-4-1-8.1-2.5-11.4,1.2-3.6,3.9-3.1,8.7-2,13.4,.4,1.7,1.1,3.3,1.8,4.8,1.7,3.6,3.4,7.1,5.1,10.6,1.3,2.6,1.2,5.1-.2,7.7-4.6,8.2-10.3,15.7-15.9,24.1-1.5-2.3-2.7-3.8-3.6-5.4-2.4-4.5-6.4-5.5-10.9-4.5-9.3,2-14.4,8.4-18.2,16.8-3.6,8.1,.9,13.4,4.5,19.3,1.3,2.1,2.1,1.5,3.2-.4,2.5-4.5,5.9-7.7,12.3-7-5.3,7.7-10.3,14.9-15.1,22.2-2.9,4.3-6.3,6.4-11.6,4.5-2.5-.9-5.2-1.1-7.8-1.7-4.8-1.1-8.5,1.3-9,6.1-.4,3.9-.1,7.8,.7,11.7,1.5,6.7,5.5,12.3,8.1,18.5,1.1,2.6,1.1,4.9-.9,7-1.9,2-4.1,2.5-6.9,1.9-3.1-.7-6-1.8-8.8-3.2-4.7-2.3-8.9-5.6-13.2-8.5-.9,1.1-.5,1.9,0,2.5,8.1,9.7,17.9,16.9,30.5,19,5.8,1,10.6-3.9,10.8-9.8,.1-3.6-1.2-6.7-2.7-9.9-2.6-5.5-6.1-10.6-7.5-16.7-1.1-4.5,.3-6.3,4.9-6.1,2.8,.1,5.6,.7,8.3,1.4,4.6,1.2,8.8,.2,11.8-2.9,8.4-8.8,15.8-18.6,20.1-29.9,1.8-4.7,1.9-9.4,7.9-10.6,1-.2,1.9-1.6,2.6-2.6,5.7-8.3,11.5-16.6,17-25,3.4-5.3,4.1-10.9,.5-16.4-1.5-2.2-.8-3.2,1.4-4,5.2-1.9,9.9-4.8,14.1-8.4,.8-.7,2.3-1.4,1.8-2.5m-17.1-3.6c-.2,.2-.3,.4-.5,.6,0,0-.2,.2-.3,.3,0,0-.1,.1-.2,.2-.1,0-.3,.2-.4,.3s-.3,.2-.4,.3c-.1,0-.3,.2-.4,.2,0,0-.1,0-.2,0-.2,0-.4,.2-.6,.3-.2,0-.4,.2-.6,.2-.5,.2-.9,.3-1.4,.5-.6,.2-1.3,.6-2,.8,0,0-.1,0-.2,0,0,0,0,0-.2,0-.8,.1-1.4-.2-1.8-1.5,0-.1,0-.3,0-.4h0c0-.4,0-.7,0-1.1,0,0,0-.2,0-.3,0-.2,.2-.5,.3-.7v-.2c.2-.1,.3-.2,.4-.3,0-.1,.2-.2,.3-.3,0,0,.2-.1,.3-.2,0,0,.2-.1,.3-.2,.1,0,.2-.1,.3-.2,.3-.1,.6-.2,1-.2,.8,0,1.5-.1,2.3,0,.2,0,.3,0,.5,0,.3,0,.6,0,.9,.2,.2,0,.3,0,.5,.2,.1,0,.3,.1,.4,.2,.4,.2,.7,.4,1.1,.7,0,0,.2,.2,.3,.2,0,0,.2,.2,.3,.2h0Z"/><path class="uuid-f8b2b877-8d34-4d53-ba2f-6bcab93dcd58" d="M286.8,337.2c12.5,4.8,24.1,10.9,35.4,17.6,10,5.9,20.5,11.1,29.1,19.1,4.4,4.1,7.9,8.8,11,15.4-8-4.3-14.9-8.1-21.8-11.9-9.5-5.2-18.9-10.7-28.5-15.6-7.2-3.6-13.3-8.1-17.8-14.9-2.2-3.4-4.9-6.5-7.3-9.8"/><path class="uuid-f8b2b877-8d34-4d53-ba2f-6bcab93dcd58" d="M1064.5,484.4q.3,7.8-7.5,7.6t-8-7.5c0-.6-.1-1.2-.2-1.9-.8-7.1-.8-7.2-7.7-7.6-2-.1-3.4-.7-3.7-2.7-.5-3.9-.9-7.8-1.2-11.7-.2-2.3,.7-3.6,3.4-2.9,1.2,.3,2.5,.4,3.7,.5,9,.7,9.2,.7,9.1,9.9,0,4.2,.5,7.3,5.5,6.9,5.4-.5,7.6,1.6,6.5,7-.1,.8,0,1.6,0,2.3"/><path class="uuid-f8b2b877-8d34-4d53-ba2f-6bcab93dcd58" d="M1091,371.4q-9.1-.6-9.4-9.9c-.2-6.6-.1-6.8-6.9-7.3-2.9-.2-4.1-1.1-4.6-3.9-.7-3.6-.5-7.2-.8-10.8-.1-1.8,.6-2.7,2.5-2.4,.2,0,.3,0,.5,0,3.9,.3,8.6-1.1,11.5,1.1,3,2.2,.9,7,1.2,10.6,.2,3.7,1.6,5.2,5.4,5.3,6.5,.2,6.5,.4,6.6,7,0,1.4,0,2.8,.1,4.2,.7,6.5,.7,6.5-6.2,6"/><path class="uuid-f8b2b877-8d34-4d53-ba2f-6bcab93dcd58" d="M139.5,605.1c.4,2.4-.4,3.1-1.5,3.7-1.4,.8-2.7,1.8-4.1,2.2-4.8,1.5-8.2,3.6-5.2,9.4,.7,1.3,.3,2.8-1.4,3.5-.4,.2-.8,.5-1.2,.8-9.6,5.7-12.7,4.2-14-7-.2-1.7,.2-2.7,1.9-3.2,1.3-.4,2.7-.8,4-1.3,6.2-2.3,6.4-2.3,5-8.8-.6-3,.2-4.7,3.2-5.4,.9-.2,1.8-.7,2.7-.9,2.5-.5,5.4-4.1,6.9-2.3,2.3,2.6,2.8,6.8,3.7,9.3"/><path class="uuid-f8b2b877-8d34-4d53-ba2f-6bcab93dcd58" d="M318.6,466.9c-.1-3.4,7.4-8.6,11.7-7.3,4.8,1.4,1.9,7,3.4,10.6,1,2.5-5,6.1-10.2,5.9-7.4-.3-2.4-7-4.8-9.2"/><path class="uuid-f8b2b877-8d34-4d53-ba2f-6bcab93dcd58" d="M209.1,457.1c-.2-.2-.4-.3-.6-.5,.2,0,.4,0,.6-.2,0,.2,0,.4,0,.7,0,0,0,0,0,0"/><path class="uuid-802ccbc2-7b71-46da-af31-08cd379465e8" d="M686.6,383.4c-.3,.3-.6,.6-.9,.9,0-.2-.2-.4-.3-.6,0,0,0-.2,.1-.2,0,0,0,0,0,0,0,0,0,0,0,0h0c.3-.4,.6-.3,.9,0"/><path class="uuid-f8b2b877-8d34-4d53-ba2f-6bcab93dcd58" d="M670.6,652.9c.7,.7,1.4,1.4,2,2.1-.7-.7-1.3-1.4-2-2.1h0Z"/><path class="uuid-f8b2b877-8d34-4d53-ba2f-6bcab93dcd58" d="M676.6,659.1c1.3,1.3,2.5,2.6,3.8,3.9-1.2-1.3-2.5-2.6-3.8-3.9"/><path class="uuid-f8b2b877-8d34-4d53-ba2f-6bcab93dcd58" d="M690.4,669.5c.2-.1,.3-.3,.5-.4h0c-.2,.2-.3,.3-.5,.4"/><path class="uuid-f8b2b877-8d34-4d53-ba2f-6bcab93dcd58" d="M705.9,652.9c-.6,.7-1.2,1.3-1.8,2,.6-.7,1.2-1.3,1.8-2h0Z"/><path class="uuid-2691df18-61d8-47a1-bf3a-ef18051c42d6" d="M727,534.8c3.1,3,6.2,5.9,9.4,8.9-3.1-3-6.3-5.9-9.4-8.9h0Z"/><path class="uuid-2691df18-61d8-47a1-bf3a-ef18051c42d6" d="M745.9,552.7c-3.2-3-6.4-6-9.5-9,3.1,3,6.3,6,9.5,9"/><path class="uuid-2691df18-61d8-47a1-bf3a-ef18051c42d6" d="M634.9,552.5c0-3.2,0-6.1,0-8.8v8.8h0Z"/><path class="uuid-2691df18-61d8-47a1-bf3a-ef18051c42d6" d="M653.1,533.7c-.7,.8-1.5,1.5-2.2,2.3,.7-.8,1.5-1.5,2.2-2.3h0Z"/><path class="uuid-780a21ba-8f89-47bd-acb6-5744867be7e3" d="M930.9,264.4c-7.3-40.7-14.7-81.5-22.2-122.2-1.7-9.2-2.7-18.6-5.5-27.6h0c-1.6,1.2-3.2,2.5-4.9,3.8-.3,.2-.6,.5-.9,.7-.2,.1-.3,.2-.4,.4-.1,.1-.3,.2-.4,.3-.4,.3-.7,.6-1.1,.8-2.1,1.7-3.5,3-4.4,4.3,0,.1-.1,.2-.2,.3,0,.1-.1,.2-.2,.3,0,.1-.1,.2-.1,.3-.1,.2-.2,.4-.3,.6,0,.2-.1,.4-.2,.6,0,.4-.2,.7-.2,1.1,0,.1,0,.3,0,.4,0,.3,0,.6,0,.9,0,.2,0,.3,0,.5,0,1.9,.2,4.3,.4,7.7,2,24.8,4.4,49.6,1.9,74.5-1,9.9-2.8,19.6-6.3,29-.8,2.2-1.7,4.2-2.7,6.2-.1,.3-.3,.6-.4,.8-.3,.5-.5,1-.8,1.6-.3,.5-.5,1-.8,1.5-.1,.2-.2,.4-.4,.7-.3,.6-.7,1.1-1.1,1.7-.4,.6-.8,1.2-1.2,1.8-.3,.4-.6,.8-.9,1.2,0,0-.1,.2-.2,.2-.1,.2-.3,.4-.5,.6,0,0,0,.1-.2,.2-.3,.4-.6,.8-.9,1.1-.4,.5-.9,1.1-1.4,1.6-.3,.4-.7,.8-1.1,1.1-.2,.2-.4,.5-.6,.7-.4,.4-.8,.8-1.2,1.1-.5,.5-1,.9-1.5,1.4,0,0,0,0,0,0-.5,.4-1,.8-1.5,1.2-.5,.4-1.1,.8-1.6,1.2-.5,.4-1.1,.8-1.6,1.2,0,0,0,0,0,0-.5,.3-.9,.6-1.4,.9,0,0,0,0,0,0-.3,.2-.5,.3-.8,.5-1.4,.8-2.8,1.6-4.3,2.3-.5,.2-.9,.4-1.4,.6-.4,.2-.9,.4-1.3,.6-1,.4-2.1,.8-3.1,1.2-.2,0-.5,.2-.7,.3-1,.3-2,.6-3,.9-.3,.1-.7,.2-1,.3,0,0,0,0-.1,0-.3,0-.7,.2-1,.2,0,0-.1,0-.2,0-.3,0-.6,.1-.9,.2-.6,.1-1.1,.2-1.7,.3-.7,.2-1.4,.3-2.2,.4-1.3,.2-2.7,.4-4.1,.6-.6,0-1.1,.1-1.6,.2-.5,0-1,0-1.5,.1-.2,0-.4,0-.7,0-.4,0-.8,0-1.2,0-.7,0-1.4,0-2.1,0-1.4,0-2.8,0-4.3,0-1.7,0-3.3,0-5,0-.7,0-1.4,0-2.1,0-.1,0-.2,0-.4,0-.2,0-.3,0-.4,0-.2,0-.3,0-.4-.1-.3-.1-.5-.3-.7-.5-.1-.1-.2-.3-.3-.4,0,0,0-.2-.1-.2,0-.1-.1-.3-.1-.4,0,0,0-.1,0-.2,0-.2,0-.4,0-.5,0-.2,0-.4,0-.6,0,0,0-.2,.1-.3,.2-.5,.6-.9,1-1.2,0,0,.2,0,.2-.2,0,0,.2-.1,.3-.2,.2-.1,.4-.2,.5-.3,.2,0,.3-.2,.5-.3,.1,0,.2-.1,.4-.2,.1,0,.2-.1,.3-.2,4.4-2.4,8.7-4.7,13.1-7,1.5-.8,2.9-1.5,4.4-2.3,.8-.4,1.5-.8,2.3-1.2,2.3-1.2,4.5-2.5,6.8-3.7,1-.5,2-1,3-1.6,.6-.3,1.2-.6,1.8-1,.3-.2,.6-.3,.9-.5,.3-.2,.6-.3,.9-.5,.3-.2,.6-.3,.8-.5,.3-.2,.6-.3,.8-.5,0,0,0,0,0,0,.4-.2,.7-.5,1.1-.7,.3-.2,.7-.4,1-.7,.3-.2,.6-.5,.9-.7,.5-.4,1-.8,1.4-1.2,.4-.3,.8-.7,1.2-1,0,0,0,0,0,0,.4-.3,.7-.6,1-1,.3-.3,.6-.6,1-1,.3-.3,.6-.6,.9-.9,.5-.5,1-1.1,1.4-1.6,.2-.3,.5-.6,.7-.8,2-2.5,3.6-5.2,5.1-8,.7-1.4,1.3-2.8,1.9-4.2,.8-1.9,1.4-3.9,2-6,.3-1,.6-2.1,.8-3.1,.2-1.1,.5-2.1,.7-3.2,.2-1.1,.4-2.2,.6-3.3,.5-3.2,.9-6.4,1.2-9.5,0-.8,.1-1.6,.2-2.4,0-.9,.1-1.8,.2-2.6,0-.9,.1-1.7,.2-2.6,0-.8,0-1.5,.1-2.3,0-.9,0-1.8,.1-2.7,0-2.2,.2-4.4,.2-6.6,0-1.4,0-2.8,0-4.2,.1-11.4-.2-22.8,0-34.1,0-4.8,0-9.6,0-15.4-.4,.3-.8,.6-1.2,1-.6,.5-1.2,.9-1.8,1.4-.6,.5-1.2,.9-1.8,1.4-.4,.3-.8,.6-1.2,.9-.6,.5-1.2,.9-1.8,1.4-.5,.4-.9,.7-1.4,1-2.5,1.9-5,3.8-7.3,5.9-.6,.5-1.1,1-1.7,1.5-3.7,3.4-7.1,1.8-10.4,.7,0,0-.2,0-.2,0-.2,0-.4-.2-.6-.3,0,0-.1,0-.2-.1-.2-.2-.3-.4-.3-.5s0-.1,0-.2c0-.2,.1-.3,.3-.5,0,0,0,0,.1-.1h.1c0-.2,.2-.3,.3-.4,.2-.1,.3-.3,.5-.4,0,0,.2-.1,.2-.2,0,0,.2-.1,.2-.2,2.8-2.6,5.6-5.3,8.4-7.9,.9-.9,1.9-1.8,2.8-2.6,1.9-1.8,3.7-3.5,5.6-5.2,.9-.9,1.9-1.7,2.8-2.6,.9-.9,1.9-1.7,2.8-2.6,0,0,.2-.2,.3-.3,.2-.1,.3-.3,.4-.4s.2-.3,.4-.4h0c.1-.2,.3-.4,.4-.5,.4-.5,.7-1.1,.8-1.6,0-.2,0-.4,.1-.6,0-.7,0-1.5-.2-2.4,0-.2-.1-.4-.2-.7-.4-1.2-.8-2.4-1.2-3.6-.2-.6-.4-1.2-.5-1.8-.9-3-1.7-6.1-2.5-9.1,0,0,0-.2,0-.3,0-.1,0-.2-.1-.4h0c0-.1,0-.2,0-.4-.1-.6-.1-1.2,0-1.8,0-.3,.2-.6,.3-.8,3.6-7.5,7.2-15,11.1-23.1,4.4,8.1,8.5,15.6,12.7,23.1,0,.2,.2,.3,.2,.5,0,.1,0,.2,.1,.3,0,.1,0,.2,0,.3,0,0,0,.2,0,.3,0,0,0,0,0,0,0,.4,0,.8,0,1.2,0,.2,0,.3-.1,.5,0,.2-.2,.4-.2,.7-.2,.5-.4,1-.6,1.6,0,.2,0,.3-.1,.4,0,.1,0,.2-.1,.3,0,.2-.1,.4-.2,.6,0,0,0,.2-.1,.3,0,.2-.2,.4-.3,.6-.4,.8-.7,1.7-.9,2.7,0,0,0,.1,0,.2,0,0,0,.1,0,.2,0,.2,0,.3,0,.5,0,.2,0,.5,0,.8,3.2-2.3,6.2-4.4,9.2-6.5h0c0-1.4,.3-2.8,0-4.2-4.1-22.9-8.4-45.8-12.4-68.7-.7-3.8-1.8-4-5.1-2.8-22.6,8.5-45.9,14.3-69.9,17.2-31.5,3.9-62.9,2.7-94.1-2.6-2.6-.4-3.9,.2-5.4,2.2-10.8,14-30.2,13.1-39.7-1.8-1.2-1.9-2.3-2.4-4.5-2.2-6.1,.7-12.2,1.3-18.3,1.7-52.6,3-103.8-2.4-152.1-24.9-3.4-1.6-3.5,0-4,2.5-7.4,38.6-14.9,77.2-22.4,115.8-7.8,40.5-15.7,80.9-23.5,121.4-2.7,13.9-5.2,27.8-7.8,41.7,1.2,.3,2.3,.5,3.5,.8,.7,.2,1.3,.3,2,.4,1.1,.2,2.1,.5,3.2,.7,.9,.2,1.7,.4,2.6,.5,1.7,.3,3.5,.7,5.2,1,.9,.2,1.7,.3,2.6,.5,1.7,.3,3.5,.6,5.2,.9,.8,.1,1.5,.2,2.3,.4,.8,.1,1.5,.2,2.3,.4,.4,0,.7,.1,1.1,.2,1.3,.2,2.6,.4,3.9,.6,1.5,.2,2.9,.4,4.4,.6,1.7,.2,3.5,.5,5.2,.7,3.2,.4,6.4,.8,9.6,1.1,1.4,.2,2.7,.3,4.1,.4,4.3,.5,8.7,.9,13,1.2,2.2,.2,4.4,.4,6.6,.6,1.5,.1,2.9,.2,4.4,.4,1.5,.1,3.1,.2,4.6,.4,8.7,.7,17.5,1.3,26.2,2.1,2.8,.2,5.6,.5,8.3,.7,2.8,.2,5.6,.5,8.3,.7,2.8,.2,5.6,.5,8.3,.8,1.8,.2,3.7,.4,5.5,.6,.9,0,1.8,.2,2.8,.3,4.6,.5,9.2,1.1,13.8,1.8,1.7,.2,3.4,.5,5.2,.8,.6,0,1.1,.2,1.7,.3,1.9,.3,3.8,.7,5.6,1,.8,.1,1.5,.3,2.2,.4,.8,.2,1.6,.3,2.4,.5,.7,.1,1.4,.3,2,.4,.9,.2,1.8,.4,2.7,.6,2.7,.6,5.4,1.3,8.1,2,.8,.2,1.6,.4,2.4,.7,2.8,.8,5.5,1.6,8.3,2.6,18,6,33.9,15.2,44.6,31.5l.6,.9c.4,.6,.7,1.2,1.1,1.8,.2,.3,.3,.6,.5,.9,.5,.9,.9,1.6,1.2,2.2,.1,.2,.3,.4,.4,.6,.6,.9,1,1.3,1.6,1.3s.1,0,.2,0c0,0,0,0,.1,0,.4-.1,.9-.5,1.4-1,.1-.1,.2-.2,.4-.4,.3-.3,.8-.8,1.2-1.2l.4-.4c.2-.2,.4-.4,.6-.6,.3-.3,.6-.6,.9-.9,.8-.9,1.7-1.7,2.6-2.5,.5-.5,1-.9,1.5-1.4,1.2-1.1,2.5-2.2,3.7-3.3,.8-.7,1.6-1.3,2.4-2,.6-.5,1.3-1.1,2-1.6,.2-.2,.3-.3,.5-.4,.8-.6,1.6-1.2,2.4-1.8,.8-.6,1.6-1.2,2.5-1.8,.4-.3,.7-.5,1.1-.8,.5-.3,.9-.7,1.4-1,.4-.3,.8-.5,1.1-.8,1.3-.9,2.7-1.8,4-2.6,.4-.3,.8-.5,1.3-.8,.4-.3,.8-.5,1.3-.8,.9-.5,1.7-1,2.6-1.5,.8-.4,1.5-.8,2.3-1.2,.9-.5,1.9-1,2.8-1.5,.2,0,.3-.2,.5-.2,.9-.4,1.7-.9,2.6-1.3,.8-.4,1.6-.8,2.4-1.2,.1,0,.2-.1,.4-.2,.9-.4,1.7-.8,2.6-1.2,.9-.4,1.8-.8,2.7-1.1,.1,0,.3-.1,.4-.2,.7-.3,1.5-.6,2.2-.9,.3-.1,.6-.2,.9-.4,.7-.3,1.5-.5,2.2-.8,1.1-.4,2.3-.8,3.5-1.2,.7-.2,1.4-.5,2.1-.7,1.6-.5,3.2-1,4.8-1.5l1.1-.3c2.4-.7,4.9-1.4,7.4-2,.5-.1,1-.3,1.6-.4,1-.2,2-.5,3-.7,1.9-.4,3.7-.8,5.6-1.1,.5-.1,1.1-.2,1.6-.3,.6-.1,1.2-.2,1.9-.3,1.1-.2,2.1-.4,3.2-.5,2.7-.4,5.4-.8,8.1-1.1,.8,0,1.5-.2,2.3-.3,1.1-.1,2.2-.2,3.2-.4,3.8-.4,7.6-.8,11.4-1,1.8-.1,3.5-.3,5.3-.4,.5,0,1.1,0,1.6,0,1.3,0,2.6-.2,4-.2,1.7,0,3.4-.2,5.2-.2,1.5,0,3-.1,4.6-.2,1,0,1.9,0,2.9-.1,.9,0,1.8,0,2.7,0,2.2,0,4.4-.1,6.7-.2,1.4,0,2.8,0,4.3-.1,3.6-.1,7.3-.2,10.9-.3,20.6-.6,41.3-1.2,61.5-6,1-.2,2.1-.5,3.1-.8,.7-.2,1.4-.4,2.1-.6,1.1-.3,2.2-.6,3.3-1,3.4-1,6.7-2,10-3-2.4-13.6-4.7-27.3-7.2-40.9m-167.8-153.8c1.2,1.3,2.5,2.6,3.8,3.9,1.3,1.3,2.5,2.6,3.8,3.9,1.9,1.9,3.9,3.8,5.8,5.8,.6,.6,1.3,1.3,1.9,1.9,0,0,0,0,0,0,.3,.2,.6,.5,.8,.8,0,0,.2,.2,.2,.3,0,0,.1,.2,.2,.3,0,.2,.2,.4,.2,.7,0,0,0,.2,0,.3h0c-.2,.2-.3,.4-.5,.6-.2,.2-.4,.4-.6,.6,0,0-.1,.2-.2,.3-.2,.2-.3,.3-.5,.5-1.3,1.3-2.6,2.6-3.8,3.8-2.6,2.6-5.1,5.1-7.7,7.7-1.3,1.3-2.5,2.6-3.8,3.9-1.6,1.7-2.7,2.1-4.5,.1-1.3-1.3-2.6-2.7-3.8-4-3.9-4-7.8-7.9-11.8-11.7-.1-.1-.2-.2-.3-.3-.1-.1-.3-.3-.4-.4,0,0-.1-.2-.2-.2,0-.1-.1-.2-.2-.3,0-.1-.1-.2-.1-.3,0,0,0,0,0-.2-.2-.9,.3-1.8,1.4-2.8,5.1-4.9,10.1-9.9,15-15,1.9-2,3.1-2.4,5.2-.2m-91.1-2.8c0-.2,.1-.4,.2-.6,0-.3,.2-.6,.3-.8,.1-.3,.3-.5,.4-.8,.2-.3,.4-.6,.6-.9,.1-.1,.2-.3,.3-.4,.1-.2,.3-.3,.4-.5,.1-.1,.2-.2,.3-.3,.1-.1,.2-.2,.3-.3,.2-.2,.5-.4,.8-.6,1.1-.8,2.4-1.5,3.9-2.2,3.1-1.3,6.3-2.6,9.4-4,3.1-1.3,6.3-2.7,9.4-4,2.8-1.2,5.6-2.4,8.4-3.7,9.7-4.2,19.4-8.5,29.1-12.8,6.2-2.8,12.5-5.5,18.8-8.2,.2,0,.4-.2,.5-.3,1.2-.8,2.8-2.3,3.8-1.4,0,0,.2,.2,.3,.3h0c0,.2,.2,.3,.2,.5,.3,1,.6,2.3,.4,3.6,0,.1,0,.2,0,.4,0,.2,0,.4-.1,.6,0,0,0,.2,0,.2,0,.2-.1,.4-.2,.5,0,.1-.1,.3-.2,.4-.1,.3-.3,.5-.5,.8,0,.1-.2,.2-.3,.4-.3,.3-.6,.6-1,.8-.1,0-.2,.2-.4,.2,0,0-.2,0-.3,.1,0,0-.2,0-.3,.1-.3,.2-.7,.3-1.1,.5-.2,0-.4,.2-.5,.2-27.4,12.6-54.7,25.1-82.1,37.7,0,0-.2,0-.3,.1-.3,0-.7,.2-1.3,.3,0-2,0-3.8,.4-5.4,0-.2,.1-.5,.2-.7m-48.5-25.7c0-.1,0-.2,0-.4,0,0,0,0,0,0,0,0,0-.2,0-.2,.2-.8,.5-1.5,1.1-2.1,0,0,.1-.1,.2-.2,0,0,.2-.2,.3-.3,.3-.2,.5-.4,.8-.6,.2,0,.4-.2,.5-.3,.1,0,.2-.1,.4-.2,0,0,0,0,0,0,.2,0,.3-.1,.5-.2,.2,0,.4,0,.5-.1,.8-.2,1.6-.2,2.4,0,0,0,0,0,0,0,.4,0,.9,.2,1.3,.4,1.1,.5,2.2,1,3.2,1.7,.2,.1,.5,.3,.7,.5,.2,.2,.5,.3,.7,.5,.2,.2,.5,.4,.7,.6,.4,.4,.9,.8,1.3,1.2,.4,.4,.8,.8,1.2,1.3,1,1.1,1.9,2.3,2.7,3.5,1.5,2.2,2.7,4.6,4.6,7.8,1.9-6.2,2.5-11.8,2.5-17.5,0-.5,0-1.1,0-1.6,0-1.7,0-3.3,.2-5,0,0,0-.1,0-.2,0-.9-.1-1.9,0-2.8,0,0,0-.2,0-.2,0,0,0-.1,0-.2,0,0,0-.1,0-.2,0,0,0,0,0-.2,0,0,0-.1,0-.2,0,0,0-.2,.1-.2,0,0,0-.1,.1-.2,0,0,0-.1,.2-.2,0,0,0,0,0,0,0,0,.1-.1,.2-.2,0,0,.1,0,.2,0,.1,0,.3-.1,.4-.2,1.7-.5,3.5-.6,5.2,0,.8,.3,1.7,.8,2.4,1.4,2.6,2.1,2.1,5,1.8,7.8-.3,2.4-1.2,4-4.2,4h0c-.1,0-.3,0-.4,0-.2,0-.5,0-.6,.2,0,0,0,0,0,0,0,0,0,0,0,0,0,0,0,0-.1,0,0,0-.1,0-.1,0,0,0-.1,0-.2,.1,0,0-.1,.1-.2,.2,0,0-.1,.1-.1,.2-.1,.2-.2,.4-.3,.6,0,0,0,.1,0,.2,0,0,0,0,0,.2,0,.2,0,.3,0,.5,0,.1,0,.2,0,.3,0,0,0,.2,0,.3,0,.2,0,.5,0,.7,0,.2,0,.4,0,.6-.5,3.9-1,7.8-1.5,11.7-.5,3.9-1,7.8-1.5,11.7-.2,1.3,0,2.9-1.6,4.2-1.8-2.8-3.6-5.5-5.2-8.3-.1-.2-.2-.4-.4-.6-.1-.2-.2-.4-.4-.6-.1-.2-.3-.4-.4-.6-.1-.2-.3-.4-.4-.6-.2-.2-.4-.5-.6-.7-.1-.2-.3-.3-.4-.5-.1-.1-.2-.2-.3-.4-1-1.1-2.1-2-3.4-2.7-.3-.2-.6-.4-1-.6-.1,0-.2-.1-.3-.2-.2-.1-.5-.2-.8-.4-.1,0-.3-.1-.4-.2-.4-.2-.7-.3-1.1-.4-.4-.1-.7-.2-1.1-.3,0,0-.1,0-.2,0-.1,0-.2,0-.3,0-.6-.2-1.2-.3-1.7-.5-.2,0-.3-.1-.5-.2,0,0-.1,0-.2,0-.2,0-.4-.2-.6-.3-.8-.4-1.5-.9-2.2-1.4-.2-.2-.4-.4-.6-.6-.8-.8-1.4-1.8-1.9-2.9-.2-.5-.5-1.1-.6-1.7-.1-.3-.2-.7-.2-1.1,0-.3-.1-.6-.1-.9,0-.2,0-.4,0-.7,0-.1,0-.2,0-.3,0-.1,0-.3,0-.4,0-.2,0-.4,0-.6m-38.8,53.6c7.9,3.5,12.2-1.2,16.3-6.8,3.7-4.8,7.6-9.4,11.6-14.3-10.4-2.7-13.2-9.7-7.6-17.2,1.4-1.9,3.1-3,5.6-2.7,2.4,.3,3.4,2.1,4.2,4,1.6,4.4,1.9,9.2,.9,13.5-2.2,10.2-7.2,19-14.1,26.8-.6,.7-1.5,1.3-2.4,1.4-5.6,.4-10.6-1.3-15.9-3.9,.9-.6,1.2-.9,1.3-.8m-58.3-16.7c0-.1,0-.2,0-.3,0-.1,0-.2,0-.3,0-.2,0-.3,.2-.4,0-.1,.1-.2,.2-.4t0,0c0,0,.1-.2,.2-.3,0,0,0,0,0-.1,0,0,.2-.2,.3-.3,0,0,0,0,0,0,.1-.1,.2-.2,.4-.3,2.3-1.8,4.8-2.1,7.5-.7,.4,.2,.8,.4,1.1,.6,.3,.2,.7,.4,1,.6,0,0,.1,0,.2,0,.3,.2,.6,.4,.8,.6,.4,.3,.7,.5,1.1,.8,.3,.3,.6,.5,.9,.8,.6,.5,1.2,1.1,1.7,1.7,0,0,0,0,0,0,1.1,1.2,2.1,2.5,3,3.8,.5,.7,.9,1.4,1.4,2.2,.2,.3,.3,.5,.5,.8,.4,.8,.9,1.6,1.3,2.4,.3,.5,.6,1,1.2,2.3,3.1-8.5,2.2-16.4,2.8-24.1,0,0,0-.2,0-.3,0-.2,0-.4,0-.5,0-.4,0-.8,0-1.1,0-.2,0-.5,0-.7,0-.2,0-.3,0-.5,0,0,0-.2,0-.2,0,0,0-.2,0-.2,0,0,0-.1,0-.2,0-.2,.2-.4,.4-.6,0,0,0,0,0,0,0,0,0,0,0,0,0,0,.1,0,.2-.1,0,0,0,0,0,0,.2-.2,.5-.3,.9-.3,0,0,.1,0,.2,0,0,0,0,0,0,0,0,0,.2,0,.2,0,.1,0,.2,0,.4,0,.2,0,.4,0,.6,0,4.5,0,7.7,2,7.8,5.8,0,1.3,.2,2.8,0,4.1,0,0,0,.2,0,.3,0,.6-.2,1.1-.5,1.6,0,0,0,.1-.1,.2-.1,.2-.3,.4-.5,.6-.1,0-.2,.2-.4,.3-.5,.4-1.2,.6-2.1,.8-.2,0-.3,0-.5,0-.2,0-.3,0-.5,0-.3,0-.6,0-.8,.2-.1,0-.2,0-.3,.2,0,0-.2,.1-.2,.2,0,0-.1,.1-.2,.2,0,0,0,0-.1,.2,0,0,0,.2-.1,.2,0,0,0,0,0,.2,0,0,0,.2,0,.2,0,0,0,.2,0,.2,0,0,0,.2,0,.2,0,.2,0,.4,0,.6,0,.6,0,1.1-.1,1.6-1.1,7.6-2,15.3-3,22.9-.2,1.5,.2,3.2-1.5,4.8-1.8-2.7-3.6-5.2-5.1-7.8-2.6-4.8-6.2-8.3-11.8-9.3-.3,0-.7-.1-1-.2-.3,0-.5-.1-.8-.2-.2,0-.4-.1-.5-.2,0,0,0,0-.1,0-.2,0-.3-.2-.5-.2-.4-.2-.7-.4-1-.6-.4-.3-.8-.6-1.2-1-.1-.1-.2-.2-.3-.3-.1-.1-.2-.2-.3-.4,0-.1-.2-.2-.3-.3,0-.1-.2-.2-.2-.4,0,0,0,0,0,0,0,0,0,0,0-.1-.2-.3-.4-.7-.6-1-.1-.2-.2-.4-.3-.6-.2-.5-.4-1-.6-1.5,0-.3-.2-.5-.2-.8,0-.3-.1-.6-.2-.8-.2-1.1-.5-2.2-.4-3.2,0-.1,0-.2,0-.3m186.2,168.8c-8.3,2.4-16.6,4.7-25.5,4-2.8-.2-6,.6-8.7,2.1-3,1.7-6.4,2.2-10,2.2,.2-2.3,2-2.6,3.3-3.2,3.9-1.7,7.8-3.6,11.8-4.6,5.9-1.5,10.6-4.5,14.6-9,2.2-2.5,4.4-4.9,7.6-6.2,6.2-2.5,10.1-.7,11.8,5.7,1.9,6.9,1.9,7-5,9m92.8-20.1c-.1,1.8-2.3,1.5-3.6,1.2-.4,0-.9-.1-1.2-.1s-.3,0-.4,0c-.5,0-.8,.1-1.2,.3-.1,0-.2,.1-.3,.2-.2,.1-.4,.3-.6,.5,0,0-.1,0-.1,.2,0,0-.1,0-.2,.1,0,0-.1,.2-.2,.3-.4,.5-.7,1-1.1,1.6,0,.2-.2,.4-.3,.5-.1,.2-.2,.4-.3,.5-.3,.4-.6,.8-.9,1.2,0,0-.2,.2-.2,.3-.1,.2-.3,.3-.4,.5-.3,.3-.6,.6-.9,1-.3,.3-.7,.6-1,.9-.3,.3-.7,.6-1,.9-.7,.6-1.5,1.1-2.3,1.6-.2,.1-.4,.2-.6,.4-.2,.1-.4,.2-.6,.4-.5,.3-1,.5-1.5,.8-1,.5-2.1,1-3.2,1.3-.3,.1-.7,.2-1,.3-.3,.1-.7,.2-1,.3-.7,.2-1.4,.4-2.1,.5-.3,0-.6,.1-.8,.2-.3,0-.6,0-.9,.1-2.1,.3-4.2,.3-6.2,0,2.6-1.3,5.1-2.6,7.5-3.8,2.4-1.2,4.8-2.5,7.1-3.8,2.6-1.4,5-3,7.1-5,2.1-2,3.7-4.3,4.9-7.2,.3-.8,.7-1.8,1.3-2.5,0,0,.1-.1,.2-.2,0,0,.1-.1,.2-.2,0,0,.1,0,.2,0,0,0,.2-.1,.3-.1,0,0,.1,0,.2,0h0s0,0,0,0c.2,0,.3,0,.5,0,.3,0,.6,.1,1,.3,.3,.2,.5,.3,.8,.5,.1,0,.3,.2,.4,.3,.9,.7,1.7,1.7,2.2,2.7,0,0,0,.2,.1,.3,.2,.5,.4,1.1,.4,1.6,0,0,0,.2,0,.3,0,.3,0,.6,0,.8m9.2-22.1c-8,11.4-20.1,13.1-32.5,14.2-1.8,.2-3.9-.4-5.4-1.3-7.5-4.5-15.1-3.2-22.8-1.2-11.7,3-23.1,7.4-35,9.5-15.1,2.7-30.4,2.9-45-1.1-5.8-1.6-8.5,0-12.2,2.8-2.5,1.9-5.2,3.5-7.8,5.3-.9,.6-1.9,1.7-2.9,.9-1.3-1.1,0-2.3,.6-3.3,2.4-3.4,5.2-6.3,8.3-9,1.6-1.4,1.9-2.5,.6-4.3-5.4-7.8-10.6-15.6-15.9-23.5-1.1-1.7-2.2-1.9-4-1.2-3.6,1.6-7.2,3.1-10.8,4.7-4.3,1.8-8.4,3.8-6.5,9.8,.4,1.2-.3,2.4-.9,3.6-5.1,9.7-11.2,18.5-20.7,24.7-7.9,5.1-15.3,11.1-23.9,14.7-12.3,5.2-25.1,10.1-38.9,5.3-7.3-2.5-11-8.3-12.9-15.2-3-10.6-2.7-10.7-12.7-6.3-2.4,1.1-4.9,2.3-7.4,3.1-5.1,1.6-9.9,3.2-15.3,.1-5.4-3-11.6-2.1-17.6-1.9-3.4,.1-6.9,.9-10.4-.4,1.9-3.8,5.5-4.9,8.7-6.2,11.7-4.6,24-7.4,36-11.4,3.1-1,6.2-2.3,9.2-3.6,6.3-2.9,10.2-7.5,10.6-14.8,.2-3.9,1-7.8,1.8-11.7,.3-1.5,0-4.4,2-4.2,2.3,.2,1.5,3,1.5,4.7,.2,3.9,0,7.9,0,11.8,0,4.2,1.6,5.6,5.5,4,8.4-3.4,16.1-7.8,22.9-13.9,3-2.7,4.9-5.8,2.7-10-.2-.4-.2-.9-.3-1.4-.4-10.2-4.5-19.4-8.5-28.5-3.3-7.5,0-21.1,6.5-26.6,1-.8,1.6-1.2,2.8-.4,5.2,3.5,10,7.6,11.9,13.7,1.6,5-1.7,9.5-4.3,13.4-2.4,3.7-2.2,6.1,0,9.8,4.5,7.8,6.7,17.5,2.9,24.9-5.4,10.5-11.1,21.7-22.3,28.1-4.5,2.6-8.8,5.5-13.2,8.2-3.4,2.1-3.9,4.1-1.1,7.4,4.7,5.5,10.7,7.6,17.5,7.9,21.1,1.1,38.2-7.3,52.2-22.8,1.8-2,3.3-4.2,3.6-7,.3-3-.3-4.7-4.1-4.4-6.6,.5-13.2,.5-19.7-1.3-5.5-1.5-8-6.4-7.1-12,1.2-7.7,5.1-14.4,7-21.8,.2-.7,.6-1.7,1.2-2,5.9-3.4,7.6-10.1,11.8-14.8,4.2-4.7,10.2-4.8,13.8,.2,4.5,6.4,7.8,13.3,10.4,20.7,2.8,7.8,7.6,8.3,13.8,2.8,5.1-4.5,8.6-10.3,13.5-15,1-.9,1.8-2.7,3.3-2.2,1.8,.6,1.5,2.7,1.3,4.1-.6,5.5-1.5,10.8-.9,16.4,1.2,11.1,5.7,20,15.8,25.6,2,1.2,2.9-.3,4-1.3,6.3-5.4,12-11.3,17.6-17.4,12.2-13.3,25-25.7,43.2-30.8,4.3-1.2,8.2-1.6,12.3,.5,4.3,2.2,9.1,3.6,13.1,6.4,5,3.5,7.3,8.3,6,14.3-1.4,6.6-2.8,13.2-8.1,18.2-1.2,1.1-2.8,2.9-1.4,4.5,1.3,1.4,2.7-.7,4.1-1.2,3.2-1.2,4.9-3.8,6.2-6.8,2-4.5,5-8.4,8.6-11.7,1.1-1,2.1-2,3.7-1.2,1.5,.7,1.2,2,1.2,3.3,0,3-.3,6.1-2,8.6-1.9,2.8-.8,4.6,1.3,6.4,5,4.4,8.2,4.9,14.2,1.8,5.8-3,11-6.5,14.8-12.1,3.3-4.9,8-8.6,13-11.5,4.4-2.6,5.7-6.2,5.1-10.7-3.7-27-7.5-54-11.2-80.9,0-.4-.4-.8-.8-1.6-5.7,4.4-11.6,8.3-16.7,13.1-4.5,4.1-8.7,5-14,1.8,.4-2,2.5-2.9,3.9-4.2,6.8-6.5,13.7-13,20.7-19.4,2-1.8,3-3.4,1.6-6-6.2-11.5-5.6-22.5,2.1-33.2,1.9-2.6,3-5.8,4.8-9.4,4.5,8.6,8.7,16.5,12.8,24.3,1.1,2.2-.5,3.9-1.1,5.8-.6,1.8-1.2,3.5-1.2,5.8,1.9-1.4,3.8-2.8,5.7-4.3,2.9-2.2,8.6-1.4,10.4,1.6,1,1.7-.7,2.1-1.5,2.8-4.8,3.8-9.6,7.6-14.6,11.3-1.7,1.3-2.3,2.5-1.9,4.7,5.4,30.2,10.4,60.5,16,90.7,1.9,10.1,8.4,16.9,18.2,20.2,4.1,1.4,3.9,3.6,1.9,6.3-3.4,4.5-7.7,8.3-12,11.9-1.4,1.2-2.8,1.5-4.6,0-5.7-4.9-12.9-7-19.6-10.1-1.2-.6-2.1-.7-3.2,.7-2.8,3.8-6.2,7.1-8.9,11"/><path class="uuid-6aa2ad90-77ce-476e-8db5-a276358e5f61" d="M903.2,114.6c-1.6,1.3-3.2,2.5-4.9,3.8-9.5,7.3-9.3,7.3-8.3,19.4,2,24.8,4.3,49.6,1.9,74.5-1,9.9-2.8,19.6-6.3,29-9.2,24.4-27.8,35.5-53,37-3.8,.2-7.6,0-11.3,0-1.8,0-4.3,.4-4.8-2-.4-2.2,1.8-3.1,3.5-4,5.8-3.2,11.7-6.2,17.5-9.3,4-2.1,8-4.4,12.1-6.4,16.8-8.4,24.3-22.8,27-40.6,3.4-22.3,1.9-44.6,2.2-67,0-4.8,0-9.6,0-15.4-6.7,5.2-12.9,9.4-18.4,14.4-3.7,3.4-7.1,1.8-10.5,.7-2.7-.9-.3-2.2,.5-3,7.4-7,14.8-14.1,22.5-20.9,2.3-2.1,3.1-3.8,2-6.8-1.7-4.7-2.8-9.7-4.3-14.5-.4-1.3-.6-2.4,0-3.7,3.6-7.5,7.2-15,11.1-23.1,4.4,8.1,8.5,15.6,12.7,23.1,1.2,2.2-.2,3.9-.8,5.8-.5,1.9-2,3.6-1.7,6.2,3.2-2.3,6.2-4.4,9.2-6.5,2.2,2.8,1.9,6.2,2,9.4"/><path class="uuid-d26b403a-a5d5-42d1-911b-04cd65117f73" d="M441.9,300.6c36.8,8.8,74.4,10.7,111.9,13.8,29.7,2.4,59.4,4.7,87.9,14.3,18,6,33.9,15.2,44.6,31.5,.8,1.2,1.5,2.4,2.2,3.7,2.9,5.3,2.9,5.3,7,1.2,24.6-25.3,55.2-38.3,89.6-43.7,24.2-3.8,48.6-4.1,73-4.8,20.6-.6,41.3-1.2,61.5-6,6.3-1.5,12.4-3.6,18.6-5.4,.4,1.5,.6,3.1,1.1,4.5,1.1,2.8-.1,3.8-2.6,4.8-13.5,5.2-27.5,8-41.8,9.3-24.9,2.3-49.8,.3-74.6,0-20.7-.2-41.2,.7-61.4,5.9-26.5,6.8-48.5,20.6-66.3,41.3-2.5,3-3.7,3.5-6.5,0-22-27.9-51.1-43.6-85.9-49.5-27-4.6-54.3-3.8-81.5-4.4-21.8-.5-43.5-1.5-64.3-8.7-3.4-1.2-6.8-2.6-10.1-4.1-1.5-.7-3.5-1.3-2.3-3.7"/><path class="uuid-ccb25e9d-e14e-4fb7-a526-5f114a53ab3a" d="M146.1,816.4c-31,0-62.1,0-93.1,0-3.5,0-5.6-.7-7.4-4.1-10-19.9-20.4-39.7-30.5-59.5-3.3-6.4-3.2-6.4,3.9-6.4,61.5,0,122.9,0,184.4,0,3.8,0,5.8,1,7.6,4.5,10.6,20.9,21.4,41.7,32.4,62.4,1.8,3.3,.3,3.2-2.2,3.2-11.8,0-23.6,0-35.5,0h-59.6Z"/><path class="uuid-ccb25e9d-e14e-4fb7-a526-5f114a53ab3a" d="M1256.2,816.4c-30.7,0-61.4,0-92.2,0-7,0-6.8,0-3.7-6,6.1-11.6,12-23.2,17.9-34.8,4.4-8.5,8.9-17,13.2-25.6,1.4-2.8,3.1-3.8,6.2-3.8,62.7,0,125.4,0,188.1,0,4.2,0,4.4,1,2.6,4.5-10.8,20.8-21.6,41.6-32.2,62.5-1.4,2.8-3.3,3.2-6,3.2-31.4,0-62.7,0-94.1,0"/><path class="uuid-b59eab69-d578-4cdc-b7e6-222e304d60d0" d="M249.5,519.6c-1.4,1.7-3.3,2.3-5.1,2.9-1.4,.5-3.4,2.1-4-.6-.5-2.1,.8-3.8,2.9-4,2.1-.2,4.3-.3,6.2,1.7"/><path class="uuid-98c85cce-433b-48bd-bb3e-fbc16c1f388a" d="M708.4,589.5c0,10.1-8.8,18.8-18.7,18.6-9.9-.2-18.3-8.7-18.3-18.6,0-10.2,8.3-18.4,18.7-18.4,10.1,0,18.2,8.3,18.3,18.3"/><path class="uuid-6aa2ad90-77ce-476e-8db5-a276358e5f61" d="M861,225.9c-9.7-3.3-16.3-10.1-18.2-20.2-5.6-30.2-10.6-60.5-16-90.7-.4-2.2,.2-3.4,1.9-4.7,4.9-3.7,9.8-7.4,14.6-11.3,.8-.7,2.6-1.1,1.6-2.8-1.8-3-7.6-3.8-10.4-1.6-1.9,1.5-3.8,2.9-5.7,4.3,0-2.3,.6-4.1,1.2-5.8,.6-1.9,2.2-3.6,1.1-5.8-4.1-7.9-8.3-15.7-12.8-24.3-1.8,3.6-2.9,6.8-4.8,9.4-7.7,10.7-8.3,21.7-2.1,33.2,1.4,2.6,.4,4.2-1.6,6-7,6.4-13.9,12.8-20.7,19.4-1.4,1.3-3.4,2.2-3.9,4.2,5.2,3.2,9.5,2.3,14-1.8,5.1-4.8,11-8.7,16.7-13.1,.4,.8,.8,1.2,.8,1.6,3.8,27,7.6,53.9,11.2,80.9,.6,4.4-.8,8.1-5.1,10.7-5,3-9.7,6.7-13,11.5-3.8,5.6-9,9.2-14.8,12.1-5.9,3-9.2,2.6-14.2-1.8-2.1-1.8-3.2-3.6-1.3-6.4,1.7-2.5,2-5.6,2-8.6,0-1.2,.3-2.6-1.2-3.3-1.6-.8-2.7,.2-3.7,1.2-3.6,3.4-6.6,7.2-8.6,11.7-1.3,2.9-3,5.6-6.2,6.8-1.4,.5-2.8,2.6-4.1,1.2-1.5-1.6,.2-3.3,1.4-4.5,5.2-5,6.7-11.6,8.1-18.2,1.3-6-1-10.8-6-14.3-4-2.9-8.8-4.2-13.1-6.4-4.1-2.1-8-1.7-12.3-.5-18.2,5.1-31,17.5-43.2,30.8-5.6,6.1-11.3,12-17.6,17.4-1.1,.9-2,2.4-4,1.3-10-5.7-14.5-14.5-15.8-25.6-.6-5.6,.4-11,.9-16.4,.2-1.5,.5-3.5-1.3-4.1-1.5-.5-2.3,1.2-3.3,2.2-4.9,4.7-8.4,10.4-13.5,15-6.2,5.5-11,4.9-13.8-2.8-2.6-7.3-5.9-14.3-10.4-20.7-3.6-5-9.6-5-13.8-.2-4.2,4.7-5.9,11.5-11.8,14.8-.6,.3-1,1.3-1.2,2-1.9,7.4-5.9,14.1-7,21.8-.9,5.6,1.7,10.5,7.1,12,6.5,1.8,13.1,1.8,19.7,1.3,3.8-.3,4.3,1.4,4,4.4-.3,2.8-1.8,5.1-3.6,7-13.9,15.5-31,23.8-52.2,22.8-6.8-.3-12.8-2.4-17.5-7.9-2.9-3.4-2.3-5.4,1.1-7.4,4.4-2.7,8.7-5.6,13.2-8.2,11.1-6.4,16.9-17.6,22.3-28.1,3.8-7.4,1.6-17.1-2.9-24.9-2.1-3.7-2.3-6.1,0-9.8,2.5-3.9,5.8-8.3,4.3-13.4-1.9-6.1-6.7-10.1-11.8-13.7-1.2-.8-1.8-.5-2.8,.4-6.5,5.6-9.8,19.1-6.5,26.6,4,9.1,8,18.3,8.5,28.5,0,.5,0,1,.3,1.4,2.2,4.2,.4,7.3-2.7,10-6.8,6-14.5,10.5-22.9,13.9-3.9,1.6-5.5,.2-5.5-4,0-3.9,.2-7.9,0-11.8,0-1.7,.8-4.5-1.5-4.7-2-.2-1.7,2.7-2,4.2-.8,3.9-1.6,7.8-1.8,11.7-.4,7.3-4.3,11.9-10.6,14.8-3,1.4-6.1,2.6-9.2,3.6-11.9,3.9-24.2,6.7-36,11.4-3.3,1.3-6.9,2.4-8.7,6.2,3.6,1.3,7,.5,10.4,.4,6-.2,12.3-1.1,17.6,1.9,5.4,3,10.3,1.5,15.3-.1,2.5-.8,5-2,7.4-3.1,10-4.3,9.8-4.3,12.7,6.3,1.9,6.9,5.6,12.7,12.9,15.2,13.8,4.7,26.6-.2,38.9-5.3,8.6-3.6,16-9.6,23.9-14.7,9.5-6.2,15.6-14.9,20.7-24.7,.6-1.2,1.2-2.4,.9-3.6-1.9-6.1,2.2-8,6.5-9.8,3.6-1.5,7.2-3.1,10.8-4.7,1.7-.8,2.9-.5,4,1.1,5.2,7.9,10.5,15.7,15.9,23.5,1.3,1.9,1,3-.6,4.3-3.1,2.7-5.9,5.6-8.3,9-.7,1-1.9,2.2-.6,3.3,1,.8,2-.2,2.9-.9,2.6-1.8,5.3-3.4,7.8-5.3,3.7-2.8,6.4-4.4,12.2-2.8,14.6,4,29.9,3.8,45,1.1,12-2.1,23.3-6.4,35-9.5,7.7-2,15.4-3.4,22.9,1.2,1.5,.9,3.7,1.5,5.4,1.4,12.3-1.2,24.5-2.8,32.5-14.2,2.7-3.9,6.1-7.2,8.9-11,1.1-1.4,1.9-1.3,3.2-.7,6.7,3.1,13.9,5.2,19.6,10.1,1.8,1.5,3.1,1.2,4.6,0,4.4-3.6,8.6-7.4,12-11.9,2-2.7,2.2-4.9-1.9-6.3m-253.3-6.7c0,.2,0,.4,0,.6,0,0,0,.2,0,.3,0,0,0,.1,0,.2,0,0,0,.1,0,.2,0,0,0,.1,0,.2,0,.1-.2,.2-.3,.3-.1,0-.2,.2-.4,.3,0,0-.1,0-.2,.1-.1,0-.3,.1-.5,.2,0,0-.2,0-.3,0-.6,0-1.3,0-2,0-.2,0-.5-.1-.8-.2-.7-.2-1.5-.3-2.2-.6,0,0-.2,0-.3-.1-.2,0-.4-.2-.5-.3,0,0-.2-.1-.2-.2,0,0-.1-.1-.2-.2,0,0-.1-.2-.2-.2-.1-.2-.3-.5-.4-.8,0-.2,0-.3-.1-.5,0-.3,0-.7,0-1.1,0-.4,.2-.9,.3-1.3,0-.1,.1-.2,.2-.4,.1-.2,.2-.4,.4-.5,0,0,.1-.2,.2-.2,.7-.7,1.7-1,2.8-.9,.2,0,.4,0,.5,0,.2,0,.4,0,.6,.2,.1,0,.3,0,.4,.1,.2,0,.3,.1,.4,.2,0,0,0,0,0,0,.1,0,.2,.1,.3,.2,.6,.4,1.1,.8,1.6,1.4,0,.1,.1,.2,.2,.3,.2,.3,.3,.5,.4,.8,.2,.4,.3,.9,.3,1.5v.2Zm137.5,8.5c-.4,3.2-.7,6.3-4.7,8.4-.7,.4-1.4,.8-2.1,1.1-.7,.4-1.4,.8-2.1,1.2-1.4,.8-2.8,1.6-4.2,2.4-.7,.4-1.5,.8-2.2,1.3-1,.6-2,1.1-3,1.7-2.5,1.3-5.1,2.5-7.9,3.5-.8,.3-1.5,.5-2.3,.7-.3,0-.7,.2-1,.2-.6,.1-1.2,.3-1.8,.4-1,.2-1.9,.3-2.9,.4-2.4,.2-4.8,.5-7.1,.7-.9,0-1.8,.2-2.7,.3-.4,0-.8,0-1.2,0-2-.1-4-.2-5.9-.5-.4,0-.8-.1-1.2-.2-.7,0-1.3-.2-2-.4-.5-.1-1.1-.3-1.6-.4-.6-.2-1.1-.4-1.6-.6-.5-.2-.9-.4-1.2-.5-.2,0-.3-.2-.4-.2-.4-.3-.8-.5-1-.8,0,0-.1-.2-.2-.2-.1-.2-.2-.3-.2-.5,0,0,0-.2,0-.3s0-.2,0-.3c0,0,0-.2,0-.3,0,0,0,0,0-.1,0,0,0-.2,.1-.3,.2-.4,.5-.8,.9-1.2,.1-.1,.3-.3,.4-.4,.2-.2,.3-.3,.5-.5,.7-.6,1.4-1.2,2.1-1.8,3.2-2.8,6.5-5.6,9.7-8.5,1.5-1.4,3.1-2.8,4.5-4.3,.8-.7,1.5-1.5,2.2-2.2h0c.3-.3,.6-.7,1-.9,.3-.3,.6-.6,1-.9,.3-.3,.6-.5,1-.8,.3-.3,.7-.5,1-.7,.7-.5,1.3-.9,2-1.3,.3-.2,.7-.4,1-.5,.3-.2,.7-.3,1-.5,.2-.1,.5-.2,.7-.3,.2,0,.3-.1,.5-.2,1.3-.5,2.6-.8,4-1,.4,0,.8-.1,1.2-.1,1.2,0,2.4-.1,3.6,0,.3,0,.6,0,1,0,.9,0,1.9,.2,2.8,.4,.3,0,.7,.1,1,.2,.4,0,.9,.2,1.3,.3,.9,.2,1.8,.5,2.7,.8,.3,.1,.7,.2,1,.4,.5,.2,1.1,.4,1.6,.6,.2,0,.3,.1,.5,.2,.7,.3,1.4,.6,2.1,.9,.3,.2,.7,.3,1,.5,.3,.2,.7,.3,1,.5,.3,.2,.7,.4,1,.5,.4,.2,1,.4,1.5,.6,.8,.3,1.5,.5,2.2,.9,0,0,.2,.1,.3,.2,0,0,.2,.2,.3,.2,0,0,0,0,0,0,0,0,.2,.2,.2,.3,0,0,0,.1,.1,.2t0,0c0,0,0,.2,0,.2,0,.2,.1,.4,.1,.6,0,.1,0,.2,0,.3s0,.3,0,.5"/><path class="uuid-82deb593-77d5-4264-9091-508de3aa16d1" d="M671.4,113.9c-.3-6.8,1.5-10.8,8.2-13.6,25.2-10.5,50.1-21.8,75.1-32.6,1.5-.6,4-3.6,4.9-.8,.7,2.2,1,6.1-2.3,7.9-.7,.4-1.4,.7-2.1,1-27.4,12.6-54.7,25.2-82.1,37.7-.4,.2-.9,.2-1.6,.4"/><path class="uuid-82deb593-77d5-4264-9091-508de3aa16d1" d="M779.9,128.5c-.5,.6-1.1,1.3-1.8,1.9-5.1,5.1-10.3,10.2-15.3,15.4-1.6,1.7-2.7,2.1-4.5,.1-5.1-5.4-10.3-10.6-15.7-15.7-1.9-1.9-1.5-2.9,.2-4.5,5.1-4.9,10.2-9.9,15-15,1.9-2,3.1-2.4,5.2-.2,5,5.3,10.2,10.3,15.3,15.5,.6,.6,1.6,1.1,1.5,2.5"/><path class="uuid-82deb593-77d5-4264-9091-508de3aa16d1" d="M549.6,132.5c3.1-8.5,2.3-16.4,2.8-24.1,.1-2.1-1.2-5.4,3.2-5.3,4.5,0,7.7,2,7.7,5.8,0,3.3,1.1,7.6-4.7,7.9-2.4,.1-1.9,2.6-2.2,4.2-1.1,7.6-2,15.3-3,22.9-.2,1.5,.2,3.2-1.5,4.8-1.8-2.7-3.6-5.2-5.1-7.8-2.6-4.8-6.2-8.3-11.8-9.3-5.1-.9-7.3-4.2-8.4-8.9-.5-2.2-1-4.4,1.1-6.1,2.3-1.8,4.8-2.1,7.5-.7,6.2,3.2,10,8.5,13,14.5,.3,.5,.6,1,1.2,2.3"/><path class="uuid-82deb593-77d5-4264-9091-508de3aa16d1" d="M646.8,95c1.9-6.2,2.5-11.8,2.5-17.5,0-2.2-.1-4.4,.2-6.6,.2-1.7-.9-4.3,1.4-5,2.6-.8,5.3-.4,7.6,1.4,2.6,2.1,2.1,5,1.8,7.8-.3,2.4-1.2,4-4.2,4-2.8,0-2.3,2.6-2.6,4.3-1.1,7.8-2,15.6-3,23.4-.2,1.3,0,2.9-1.6,4.2-1.8-2.8-3.6-5.5-5.2-8.3-2.6-4.6-6.3-7.6-11.6-8.9-5.6-1.4-8.4-5-8.8-10.7-.3-4.1,4-6.9,8.3-5.1,4.5,1.8,7.8,5.2,10.5,9.2,1.5,2.2,2.7,4.6,4.6,7.8"/><path class="uuid-82deb593-77d5-4264-9091-508de3aa16d1" d="M614.8,98.7c-.7-2-1.8-3.7-4.1-4-2.5-.3-4.2,.8-5.6,2.7-5.6,7.5-2.7,14.5,7.6,17.2-4,4.9-8,9.5-11.6,14.3-4.2,5.5-8.5,10.3-16.3,6.8-.1,0-.5,.3-1.3,.8,5.3,2.6,10.3,4.3,15.9,3.9,.8,0,1.8-.7,2.4-1.4,6.8-7.8,11.9-16.7,14.1-26.8,.9-4.4,.6-9.1-.9-13.5m-1.9,7.6c0,.1-.1,.2-.2,.4-.2,.3-.6,.5-1,.2-.7-.5-1.4-1-2-1.5-.3-.2-.6-.5-.9-.8-.1,0-.2-.2-.4-.3-.1-.1-.3-.3-.4-.4,0,0-.1-.1-.2-.2-.2-.2-.4-.4-.6-.6-.2-.2-.4-.4-.5-.6,0,0,0-.2,0-.3,0,0,0,0,0,0,.1-.2,.4-.4,.7-.6,0,0,.1,0,.2-.1,.1,0,.3-.1,.4-.2,0,0,.1,0,.2,0,.1,0,.3,0,.4-.1,.1,0,.3,0,.4,0,.3,0,.6,.2,.8,.3,.5,.2,.8,.5,1.1,.8,.1,.1,.3,.3,.4,.4,.7,.9,1.1,2,1.4,3.2,0,.3,0,.5,0,.8"/><path class="uuid-82deb593-77d5-4264-9091-508de3aa16d1" d="M717.6,278.8c-1.7-6.4-5.6-8.2-11.8-5.7-3.2,1.3-5.4,3.7-7.6,6.2-4,4.5-8.7,7.5-14.6,9-4.1,1-8,2.9-11.8,4.6-1.3,.6-3.1,.9-3.3,3.2,3.5,0,6.9-.5,10-2.2,2.8-1.5,5.9-2.4,8.7-2.1,8.9,.8,17.2-1.5,25.5-4,6.9-2,6.9-2.1,5-9m-5,1.6c0,0,0,.2,0,.2,0,.2-.2,.4-.4,.6,0,0-.2,.2-.3,.2-.5,.4-1.2,.6-1.9,.8-3.1,.8-6.3,1.5-10,2.4-1.2,.3-2.5,.6-3.9,.9h0c.3-.3,.5-.6,.8-.8,.1-.1,.3-.3,.4-.4,.1-.1,.3-.3,.4-.4,.2-.2,.4-.4,.6-.6,.2-.2,.4-.4,.6-.5,.8-.8,1.6-1.5,2.5-2,.2-.1,.3-.2,.5-.3,.2-.2,.4-.3,.7-.4,.2-.1,.5-.3,.7-.4,.3-.2,.5-.3,.8-.4,.2,0,.4-.2,.6-.3,0,0,0,0,.1,0,.1,0,.2-.1,.4-.2,.2,0,.3-.1,.5-.2,0,0,.2,0,.3,0,.2,0,.4-.1,.6-.2,.3,0,.6-.1,.8-.2,0,0,0,0,0,0,.2,0,.5,0,.7-.1,.4,0,.7,0,1.1,0,.3,0,.6,0,.9,0,.2,0,.3,0,.5,0,.3,0,.6,.2,.9,.3,.1,0,.3,.2,.4,.2,0,0,.2,.2,.2,.2,0,0,0,0,.1,.1,.1,.1,.2,.3,.3,.5,0,0,0,.1,0,.2,0,0,0,.1,0,.2,0,.3,0,.6,0,.8"/><path class="uuid-776a6c50-3809-430c-abb9-dd9e94f22655" d="M770.9,283.8c5.2-2.7,10-5,14.6-7.6,5.2-2.8,9.6-6.4,12-12.2,.6-1.5,1.4-4.2,3.9-2.8,2.3,1.3,4.2,3.7,4,6.5-.1,1.8-2.3,1.5-3.6,1.2-2.9-.6-4.2,.7-5.5,3.1-4.3,7.7-15.8,13-25.4,11.8"/><path class="uuid-f8b2b877-8d34-4d53-ba2f-6bcab93dcd58" d="M701.2,249.9c-4.6-.2-9.2-.4-13.5-2.1-3.9-1.5-4-3-.9-5.6,6.3-5.5,12.7-10.8,18.5-16.8,7.9-8.1,16.9-8.8,26.8-5.4,2.8,1,5.6,2,8.2,3.5,1.8,1.1,5.3,1.1,4.9,4.2-.4,3.2-.7,6.3-4.7,8.3-9.6,5-18.2,11.9-29.5,12.8-3.3,.3-6.5,.7-9.8,1"/><path class="uuid-2691df18-61d8-47a1-bf3a-ef18051c42d6" d="M603.8,221.4c-2-.6-5.2-.4-4.9-4.1,.2-2.1,1.9-3.6,3.9-3.3,2.6,.4,4.7,2.1,4.9,4.9,.1,2.2-1.6,2.8-3.9,2.4"/><path class="uuid-2691df18-61d8-47a1-bf3a-ef18051c42d6" d="M609,100.9c2.4,.6,3.3,2.6,3.8,4.7,.2,.9-.5,1.8-1.2,1.3-1.8-1.3-3.7-2.7-5-4.4-.4-.5,1.2-1.5,2.4-1.6"/><path class="uuid-2691df18-61d8-47a1-bf3a-ef18051c42d6" d="M696,285.5c4.3-4.6,8-7.5,13.1-7.7,1.4,0,3.1,.2,3.4,1.8,.3,1.7-1.3,2.3-2.7,2.6-4.2,1-8.4,2-13.9,3.3"/><rect x="514.1" y="994.2" width="81" height="40.5"/><rect x="514.1" y="1061.7" width="81" height="40.5"/><path d="M743.5,758.9v90.4c13.3,9.3,24,22.1,31.1,36.9h85.5c-14.1-59.8-58.7-108.6-116.6-127.3"/><path d="M518.9,886.2h85.5c7.1-14.8,17.7-27.6,31-36.9v-90.4c-57.9,18.7-102.4,67.5-116.6,127.3"/><path d="M487.1,1170.6c0,7.5,6,13.5,13.5,13.5h81c7.5,0,13.5-6,13.5-13.5v-41.4h-94.5c-7.5,0-13.5,6-13.5,13.5v27.9Z"/><path d="M784,1170.6c0,7.5,6,13.5,13.5,13.5h81c7.5,0,13.5-6,13.5-13.5v-27.9c0-7.5-6-13.5-13.5-13.5h-94.5v41.4Z"/><path d="M878.5,913.2h-94.5v54h94.5c7.5,0,13.5-6,13.5-13.5v-27c0-7.5-6-13.5-13.5-13.5"/><path d="M487.1,926.7v27c0,7.5,6,13.5,13.5,13.5h94.5v-54h-94.5c-7.5,0-13.5,6-13.5,13.5"/><path d="M716.5,836.3v-99.4c0-7.6-5.9-13.5-13.5-13.5h-27c-7.6,0-13.5,5.9-13.5,13.5v99.4c8.6-2.7,17.5-4,27-4s18.4,1.3,27,4"/><rect x="784" y="994.2" width="81" height="40.5"/><rect x="784" y="1061.7" width="81" height="40.5"/><path class="uuid-2744c49e-1e18-4af8-aab8-9486e45ba64b" d="M692.4,1187.6l-333.6,171.3c28.8,12.5,107.2,43.5,211.1,60.4,169.9,27.6,326.9,6.6,467-62.2l-344.5-169.5Z"/><path class="uuid-c58d13c0-114a-4d37-b80d-cd9376b777ac" d="M1036.9,1357.1c-140.1,68.9-297.1,89.8-467,62.2-104-16.9-182.4-47.9-211.1-60.4l333.6-171.3,344.5,169.5Z"/></g><g><path class="uuid-2744c49e-1e18-4af8-aab8-9486e45ba64b" d="M798,1345.4h-.1l-6.8,3.7-1-4,8.5-4.6h4.5v39h-5.1v-34.1Z"/><path class="uuid-2744c49e-1e18-4af8-aab8-9486e45ba64b" d="M820.3,1375.8c1.1,.1,2.5,0,4.3-.2,3.1-.4,5.9-1.7,8.2-3.8,2.6-2.3,4.4-5.8,5.2-10.4h-.2c-2.2,2.6-5.3,4.2-9.2,4.2-7,0-11.5-5.3-11.5-11.9s5.3-13.9,13.3-13.9,12.9,6.5,12.9,16.4-2.9,14.6-6.7,18.3c-3,2.9-7.1,4.7-11.3,5.2-1.9,.3-3.6,.4-4.9,.3v-4.3Zm1.9-22.4c0,4.9,2.9,8.3,7.5,8.3s6.3-1.7,7.7-4.1c.3-.5,.5-1.1,.5-1.9,0-6.7-2.5-11.8-8-11.8s-7.7,4-7.7,9.5Z"/><path class="uuid-2744c49e-1e18-4af8-aab8-9486e45ba64b" d="M847.6,1369.6c0-4.9,2.9-8.4,7.7-10.4v-.2c-4.4-2-6.2-5.4-6.2-8.8,0-6.2,5.2-10.4,12.1-10.4s11.3,4.7,11.3,9.6-1.6,6.8-6.4,9.1v.2c4.9,1.9,7.9,5.3,7.9,10.1,0,6.8-5.8,11.3-13.3,11.3s-13.1-4.9-13.1-10.6Zm21-.2c0-4.7-3.3-7-8.6-8.5-4.6,1.3-7,4.3-7,8-.2,4,2.8,7.4,7.8,7.4s7.8-2.9,7.8-7Zm-14.5-19.5c0,3.9,2.9,6,7.4,7.2,3.4-1.1,5.9-3.5,5.9-7.1s-1.9-6.4-6.6-6.4-6.8,2.9-6.8,6.2Z"/><path class="uuid-2744c49e-1e18-4af8-aab8-9486e45ba64b" d="M878.4,1369.6c0-4.9,2.9-8.4,7.7-10.4v-.2c-4.4-2-6.2-5.4-6.2-8.8,0-6.2,5.2-10.4,12.1-10.4s11.3,4.7,11.3,9.6-1.6,6.8-6.4,9.1v.2c4.9,1.9,7.9,5.3,7.9,10.1,0,6.8-5.8,11.3-13.3,11.3s-13.1-4.9-13.1-10.6Zm21-.2c0-4.7-3.3-7-8.6-8.5-4.6,1.3-7,4.3-7,8-.2,4,2.8,7.4,7.8,7.4s7.8-2.9,7.8-7Zm-14.5-19.5c0,3.9,2.9,6,7.4,7.2,3.4-1.1,5.9-3.5,5.9-7.1s-1.9-6.4-6.6-6.4-6.8,2.9-6.8,6.2Z"/></g><g><path class="uuid-2744c49e-1e18-4af8-aab8-9486e45ba64b" d="M488.8,1344.2h-.1l-6.8,3.7-1-4,8.5-4.6h4.5v39h-5.1v-34.1Z"/><path class="uuid-2744c49e-1e18-4af8-aab8-9486e45ba64b" d="M524.5,1378.3v-10.6h-18.1v-3.5l17.4-24.9h5.7v24.2h5.5v4.1h-5.5v10.6h-5Zm0-14.8v-13c0-2,0-4.1,.2-6.1h-.2c-1.2,2.3-2.2,4-3.2,5.8l-9.5,13.3h0c0,.1,12.8,.1,12.8,.1Z"/><path class="uuid-2744c49e-1e18-4af8-aab8-9486e45ba64b" d="M564.8,1358.3c0,13.3-4.9,20.6-13.6,20.6s-12.8-7.1-12.9-20c0-13.1,5.6-20.3,13.6-20.3s12.9,7.3,12.9,19.7Zm-21.2,.6c0,10.1,3.1,15.9,7.9,15.9s8-6.3,8-16.3-2.5-15.9-7.9-15.9-8,5.6-8,16.3Z"/><path class="uuid-2744c49e-1e18-4af8-aab8-9486e45ba64b" d="M569.2,1368.4c0-4.9,2.9-8.4,7.7-10.4v-.2c-4.4-2-6.2-5.4-6.2-8.8,0-6.2,5.2-10.4,12.1-10.4s11.3,4.7,11.3,9.6-1.6,6.8-6.4,9.1v.2c4.9,1.9,7.9,5.3,7.9,10.1,0,6.8-5.8,11.3-13.3,11.3s-13.1-4.9-13.1-10.6Zm21-.2c0-4.7-3.3-7-8.6-8.5-4.6,1.3-7,4.3-7,8-.2,4,2.8,7.4,7.8,7.4s7.8-2.9,7.8-7Zm-14.5-19.5c0,3.9,2.9,6,7.4,7.2,3.4-1.1,5.9-3.5,5.9-7.1s-1.9-6.4-6.6-6.4-6.8,2.9-6.8,6.2Z"/></g><path class="uuid-2744c49e-1e18-4af8-aab8-9486e45ba64b" d="M618.3,1355.8h7v9.3c0,2.3,.9,3.5,2.8,3.5h22.3c2,0,3.1-1.2,3.1-3.5v-9.3h7v12.8c0,4.7-2.3,7-7,7h-28.1c-4.7,0-7-2.3-7-7v-12.8Zm27.7-10.6v6.6h-13.3v-6.6h13.3Zm36.2,23.4c2,0,3.1-1.2,3.1-3.5v-9.3h7v12.8h6.3v-12.8h7v19.8h-50.5l3.7-7h9.7c2,0,3.1-1.2,3.1-3.5v-9.3h7v12.8h3.8Zm45,0c2,0,3.1-1.2,3.1-3.5v-9.3h7v12.8h6.3v-12.8h7v19.8h-50.5l3.7-7h9.7c2,0,3.1-1.2,3.1-3.5v-9.3h7v12.8h3.8Z"/><path class="uuid-2744c49e-1e18-4af8-aab8-9486e45ba64b" d="M772.9,1297.8l-1.7,2.4c-.2-.1-.5-.3-.9-.4-1.4,1.8-4,3.4-7.6,4.7-.5,0-1.2,0-2.1-.2-.9-.1-1.4-.3-1.5-.5v-.2c1.5-.6,2.6-1.1,3.4-1.4,.8-.3,1.7-.8,2.9-1.3s2.1-1.1,2.8-1.6c-1.5-.3-2.6-.7-3.3-1.3-.7-.6-1.1-1.4-1.1-2.4s.5-2.5,1.6-3.5,2.2-1.5,3.4-1.5,1.6,.4,2.2,1.3c.6,.8,.9,2.1,.9,3.9s0,1-.2,1.5c.5,0,1,.2,1.3,.5Zm-7.5-3.4c0,1.2,1.5,2.1,4.6,2.7,0-.2,.1-.4,.1-.7,0-.8-.3-1.7-.8-2.4s-1.1-1.1-1.7-1.1-1,.2-1.5,.5c-.4,.3-.7,.7-.7,1Z"/><path class="uuid-2744c49e-1e18-4af8-aab8-9486e45ba64b" d="M754.5,1330.9v-3.3h1.6v-2.7c0-2.3,1.1-3.4,3.3-3.4h2.3c2.2,0,3.3,1.1,3.3,3.4h-4.3c-.9,0-1.3,.4-1.3,1.3s.4,1.3,1.3,1.3h4.3v3.3h-10.5Zm2.1,44.9v-43h7v43h-7Z"/><g><path class="uuid-2744c49e-1e18-4af8-aab8-9486e45ba64b" d="M649.6,1262.7c-.4-4-.8-8.9-.7-12.5h-.2c-1.6,3.4-3.6,7-6,11l-8.4,14.1h-4.7l-7.7-13.8c-2.3-4.1-4.2-7.8-5.5-11.3h-.1c-.1,3.6-.5,8.5-.9,12.8l-1.3,12.4h-5.9l3.3-29h7.9l8.2,14c2,3.6,3.6,6.8,4.8,9.8h.2c1.2-2.9,2.9-6.1,5-9.8l8.5-14h7.9l3,29h-6l-1.2-12.7Z"/><path class="uuid-2744c49e-1e18-4af8-aab8-9486e45ba64b" d="M664.7,1273.2c0-1.6,1.8-2.7,4.3-2.7s4.2,1.1,4.2,2.7-1.6,2.7-4.3,2.7-4.2-1.2-4.2-2.7Z"/><path class="uuid-2744c49e-1e18-4af8-aab8-9486e45ba64b" d="M687.2,1246.4v17.2c0,6.5,4.8,9.2,11.1,9.2s11.6-2.8,11.6-9.2v-17.2h6.2v16.9c0,8.9-7.7,12.6-18.1,12.6s-17.2-3.4-17.2-12.4v-17.1h6.2Z"/><path class="uuid-2744c49e-1e18-4af8-aab8-9486e45ba64b" d="M725.3,1273.2c0-1.6,1.8-2.7,4.3-2.7s4.2,1.1,4.2,2.7-1.6,2.7-4.3,2.7-4.2-1.2-4.2-2.7Z"/><path class="uuid-2744c49e-1e18-4af8-aab8-9486e45ba64b" d="M775.1,1274.5c-2.3,.7-6.8,1.4-12.6,1.4-13.5,0-23.6-5.2-23.6-14.7s10.2-15.2,25-15.2,9.7,.8,11.4,1.3l-1.5,3.1c-2.3-.7-5.7-1.2-9.7-1.2-11.2,0-18.7,4.3-18.7,12s6.7,11.7,18.4,11.7,7.6-.5,10.1-1.2l1.3,3Z"/></g></svg>